<svg width="56" height="56" xmlns="http://www.w3.org/2000/svg">
                                        <defs>
                                            <linearGradient x1="50%" y1="100%" x2="50%" y2="0%" id="a">
                                                <stop stop-color="#2563EB" offset="0%"></stop>
                                                <stop stop-color="#3B82F6" offset="100%"></stop>
                                            </linearGradient>
                                        </defs>
                                        <g fill-rule="nonzero" fill="none">
                                            <path d="M43.443 49.745a1.028 1.028 0 0 1-.262-.019l-23.5-4.9a1 1 0 0 1-.775-1.186l6.2-29.352a1.006 1.006 0 0 1 1.182-.773l23.42 4.885a1 1 0 0 1 .776 1.183l-6.12 29.37a1 1 0 0 1-.921.795v-.003Z" fill="#7DD3FC"></path>
                                            <path d="M25 32H1a1 1 0 0 1-1-1V1a1 1 0 0 1 1-1h24a1 1 0 0 1 1 1v30a1 1 0 0 1-1 1ZM8 15.25l3.5 4 6.5-6.5-1-.75-5.5 4.25-2.5-2-1 1Z" fill="url(#a)" style="mix-blend-mode:multiply" transform="translate(6 6)"></path>
                                        </g>
                                    </svg>