<svg width="143" height="150" viewBox="0 0 143 150" fill="none" xmlns="http://www.w3.org/2000/svg">
<path opacity="0.05" fill-rule="evenodd" clip-rule="evenodd" d="M84.768 0.658494C79.2343 2.61795 75.3411 7.26204 74.8617 12.4753L74.6505 14.7746L71.2314 14.9515C68.1846 15.1091 67.6447 15.2603 66.2773 16.3382C63.7364 18.3404 63.313 19.6085 63.3126 25.2237C63.3118 30.5546 63.6044 31.7966 65.2792 33.563C67.4477 35.8505 67.2393 35.8312 89.4679 35.8312C106.956 35.8312 110.147 35.7413 111.433 35.2112C115.066 33.7141 116.015 31.672 116.015 25.3506C116.015 21.7062 115.854 20.3704 115.264 19.1026C113.889 16.1495 111.469 14.8701 107.259 14.8701H104.589V13.7031C104.589 13.0614 104.215 11.3418 103.758 9.88218C102.695 6.48568 99.5073 2.92793 96.0796 1.3099C93.0182 -0.135207 87.8499 -0.432692 84.768 0.658494ZM86.3782 7.35515C83.7479 8.53099 81.7028 11.3716 81.7028 13.8495V14.8701H89.7245H97.7463L97.472 13.1569C97.1876 11.3765 95.7335 9.26019 93.8331 7.86064C92.4329 6.82951 88.1964 6.5421 86.3782 7.35515ZM48.0187 20.1535C41.0244 21.1596 33.9839 27.4726 32.3328 34.2188C31.2952 38.4594 31.2862 38.3054 32.5478 37.9575C33.1714 37.7858 35.2737 37.6737 37.2195 37.7084L40.7571 37.7717L41.0093 36.4459C41.3734 34.5328 43.3727 32.0203 45.5183 30.78C47.0979 29.867 50.6421 29.0628 53.4011 28.9918C53.7796 28.9818 53.912 27.7757 53.912 24.3429V19.7073L52.175 19.7565C51.2199 19.7835 49.3494 19.962 48.0187 20.1535ZM120.528 24.3139V28.9205L122.878 29.1656C128.032 29.7025 130.633 31.1827 132.611 34.7021L133.811 36.8389L133.929 84.0014C134.014 118.068 133.919 131.623 133.587 132.816C132.945 135.116 130.446 138.228 128.277 139.427L126.454 140.435H87.2201H47.986L46.3124 139.552C44.4132 138.549 42.313 136.35 41.3468 134.351C40.7767 133.172 40.556 133.035 39.6389 133.29C39.0598 133.451 37.0519 133.555 35.1765 133.521L31.7668 133.46L32.0271 134.932C32.8187 139.412 37.5616 145.439 42.0714 147.699C46.5903 149.963 45.2437 149.898 87.2793 149.903C125.161 149.908 126.233 149.887 128.84 149.092C135.897 146.943 141.213 140.984 142.625 133.642C142.847 132.485 143.004 112.161 143 84.8535C142.993 34.0108 143.07 35.8231 140.718 30.7368C139.27 27.604 135.021 23.4678 131.518 21.7804C129.059 20.5957 125.029 19.7343 121.856 19.7153L120.528 19.7073V24.3139ZM36.425 45.096C35.6857 45.2685 33.9896 46.0743 32.6561 46.8861C26.1841 50.8264 20.064 53.0773 13.4073 53.9666C4.91104 55.1013 3.28323 55.8002 1.26758 59.1826C0.236866 60.9115 0.160848 61.3832 0.0272071 66.8532C-0.350012 82.2943 3.19495 95.4256 10.6842 106.328C13.6059 110.582 20.6014 117.337 25.2788 120.422C32.8212 125.397 36.9543 126.93 40.6586 126.127C44.6629 125.258 53.0541 119.332 58.9732 113.192C70.2975 101.445 76.1168 86.865 77.0634 67.8658C77.3053 63.0149 77.2567 62.4606 76.427 60.61C74.4625 56.2283 72.3291 55.0356 64.9335 54.1858C57.1459 53.2906 51.1084 51.1171 44.9703 46.999C42.0187 45.019 39.323 44.4188 36.425 45.096ZM34.9447 54.9453C28.4159 58.8795 20.0374 61.6282 12.5833 62.2817C7.96517 62.6868 8.13886 62.4554 8.14009 68.1939C8.14458 87.915 14.8961 102.806 28.3031 112.666C31.882 115.298 37.139 118.063 38.5633 118.063C39.1751 118.063 40.8875 117.284 42.3972 116.317C58.0209 106.318 66.5768 91.6465 68.6141 71.3618C69.1671 65.8575 69.1446 63.3571 68.5397 62.9883C68.2684 62.823 66.0754 62.4651 63.667 62.1934C55.445 61.2658 48.6967 58.9513 42.1638 54.8179C40.3758 53.6868 38.8355 52.7613 38.7406 52.7613C38.6458 52.7613 36.9375 53.744 34.9447 54.9453ZM80.037 56.0756C80.4616 56.8023 81.1355 58.4397 81.5348 59.7147L82.2607 62.0325H100.149C112.389 62.0325 118.352 61.8911 119.034 61.5851C121.048 60.6797 121.514 57.9016 119.951 56.1094L118.965 54.9783L99.115 54.8663L79.265 54.7546L80.037 56.0756ZM52.4722 73.1347C49.5006 74.872 42.5582 79.8853 36.1822 84.8991L31.4521 88.6188L28.2758 85.9822C23.7038 82.187 21.776 81.2905 20.6255 82.4252C20.1359 82.9082 20.0243 83.4427 20.2234 84.3537C21.0771 88.2653 27.2692 98.2509 29.3739 99.1107C31.9384 100.158 33.2863 99.4581 38.1775 94.5379C43.2996 89.3855 51.5273 80.4122 54.6578 76.5642C57.0405 73.6349 57.5117 71.7069 55.8438 71.7069C55.333 71.7069 53.8159 72.3494 52.4722 73.1347ZM81.5148 75.8386C81.3055 76.4892 80.4767 81.5038 80.4767 82.1197C80.4767 82.472 85.314 82.5905 99.7047 82.5905H118.932L119.935 81.5239C121.64 79.7096 121.155 77.0931 118.902 75.9434C117.89 75.4275 114.962 75.3348 99.6924 75.3348C85.6393 75.3348 81.6415 75.4456 81.5148 75.8386ZM75.145 98.9071C74.2561 100.787 73.529 102.504 73.529 102.724C73.529 102.982 81.2471 103.126 95.42 103.13C118.732 103.138 119.471 103.081 120.496 101.193C121.58 99.1949 120.575 96.6719 118.397 95.923C117.564 95.6368 110.29 95.4896 96.9485 95.4896H76.7605L75.145 98.9071ZM60.5532 119.545C58.6985 121.405 57.1815 123.012 57.1815 123.115C57.1815 123.219 70.7046 123.303 87.2332 123.303C119.325 123.303 119.438 123.297 120.496 121.348C121.257 119.945 121.017 118.105 119.934 117.037L118.931 116.048L91.4275 116.105L63.9248 116.162L60.5532 119.545Z" fill="#1B2E39"/>
</svg>
