<svg width="25" height="24" viewBox="0 0 25 24" fill="none" xmlns="http://www.w3.org/2000/svg">
<path d="M13.25 13.638V10.362C13.7504 10.1851 14.1722 9.83699 14.4407 9.37918C14.7093 8.92137 14.8074 8.38336 14.7176 7.86024C14.6278 7.33712 14.3561 6.86257 13.9503 6.52046C13.5444 6.17836 13.0308 5.99072 12.5 5.99072C11.9692 5.99072 11.4556 6.17836 11.0498 6.52046C10.644 6.86257 10.3722 7.33712 10.2824 7.86024C10.1927 8.38336 10.2907 8.92137 10.5593 9.37918C10.8278 9.83699 11.2496 10.1851 11.75 10.362V13.6388C11.2496 13.8157 10.8278 14.1638 10.5593 14.6217C10.2907 15.0795 10.1927 15.6175 10.2824 16.1406C10.3722 16.6637 10.644 17.1383 11.0498 17.4804C11.4556 17.8225 11.9692 18.0101 12.5 18.0101C13.0308 18.0101 13.5444 17.8225 13.9503 17.4804C14.3561 17.1383 14.6278 16.6637 14.7176 16.1406C14.8074 15.6175 14.7093 15.0795 14.4407 14.6217C14.1722 14.1638 13.7504 13.815 13.25 13.638ZM12.5 7.50004C12.6483 7.50004 12.7933 7.54403 12.9167 7.62644C13.04 7.70885 13.1361 7.82599 13.1929 7.96303C13.2497 8.10008 13.2645 8.25088 13.2356 8.39636C13.2067 8.54185 13.1352 8.67548 13.0303 8.78037C12.9254 8.88526 12.7918 8.95669 12.6463 8.98563C12.5008 9.01457 12.35 8.99972 12.213 8.94295C12.0759 8.88619 11.9588 8.79006 11.8764 8.66672C11.794 8.54338 11.75 8.39838 11.75 8.25004C11.75 8.05113 11.829 7.86037 11.9697 7.71971C12.1103 7.57906 12.3011 7.50004 12.5 7.50004ZM12.5 16.5C12.3517 16.5 12.2067 16.4561 12.0833 16.3736C11.96 16.2912 11.8639 16.1741 11.8071 16.0371C11.7503 15.9 11.7355 15.7492 11.7644 15.6037C11.7934 15.4582 11.8648 15.3246 11.9697 15.2197C12.0746 15.1148 12.2082 15.0434 12.3537 15.0145C12.4992 14.9855 12.65 15.0004 12.787 15.0571C12.9241 15.1139 13.0412 15.21 13.1236 15.3334C13.206 15.4567 13.25 15.6017 13.25 15.75C13.25 15.949 13.171 16.1397 13.0303 16.2804C12.8897 16.421 12.6989 16.5 12.5 16.5Z" fill="#010D14"/>
<path d="M23.3109 13.0604C23.5921 12.7791 23.7501 12.3977 23.7501 11.9999C23.7501 11.6022 23.5921 11.2207 23.3109 10.9394L18.9707 6.59919L21.1457 4.45269C21.4665 4.53255 21.8047 4.5043 22.1078 4.37232C22.4109 4.24034 22.662 4.01201 22.8221 3.72275C22.9822 3.43349 23.0423 3.09948 22.9932 2.77255C22.9441 2.44562 22.7884 2.14403 22.5504 1.9146C22.3124 1.68516 22.0053 1.5407 21.6768 1.50363C21.3482 1.46656 21.0167 1.53895 20.7335 1.70956C20.4503 1.88018 20.2314 2.13949 20.1106 2.44725C19.9899 2.75502 19.9741 3.09403 20.0657 3.41169L17.9102 5.53869L13.5609 1.18869C13.2796 0.907485 12.8982 0.749512 12.5004 0.749512C12.1027 0.749512 11.7212 0.907485 11.4399 1.18869L7.09968 5.53044L4.95318 3.35394C5.03263 3.03305 5.00396 2.69492 4.87162 2.39199C4.73928 2.08905 4.51067 1.83826 4.22125 1.67852C3.93183 1.51878 3.59779 1.45901 3.27093 1.50849C2.94408 1.55798 2.6427 1.71394 2.41353 1.9522C2.18437 2.19045 2.04023 2.49767 2.00349 2.8262C1.96675 3.15473 2.03945 3.4862 2.21033 3.76919C2.3812 4.05218 2.64068 4.27087 2.94853 4.39133C3.25638 4.5118 3.59537 4.5273 3.91293 4.43544L6.03918 6.59019L1.68918 10.9394C1.40797 11.2207 1.25 11.6022 1.25 11.9999C1.25 12.3977 1.40797 12.7791 1.68918 13.0604L6.03918 17.4097L3.91293 19.5644C3.59604 19.4732 3.2579 19.489 2.95091 19.6094C2.64392 19.7298 2.38523 19.9482 2.21494 20.2306C2.04465 20.513 1.97227 20.8437 2.00902 21.1714C2.04576 21.4991 2.18959 21.8055 2.41819 22.0432C2.64679 22.2809 2.94741 22.4365 3.27345 22.486C3.59949 22.5354 3.93274 22.4759 4.22154 22.3168C4.51034 22.1576 4.73857 21.9076 4.87085 21.6055C5.00313 21.3034 5.03206 20.9661 4.95318 20.6459L7.09968 18.4709L11.4399 22.8104C11.7212 23.0916 12.1027 23.2496 12.5004 23.2496C12.8982 23.2496 13.2796 23.0916 13.5609 22.8104L17.9109 18.4612L20.0649 20.5882C19.9737 20.9051 19.9895 21.2432 20.1099 21.5502C20.2303 21.8572 20.4487 22.1159 20.7311 22.2862C21.0135 22.4565 21.3442 22.5288 21.6719 22.4921C21.9996 22.4554 22.306 22.3115 22.5437 22.0829C22.7814 21.8543 22.937 21.5537 22.9864 21.2277C23.0359 20.9016 22.9764 20.5684 22.8172 20.2796C22.6581 19.9908 22.408 19.7625 22.106 19.6303C21.8039 19.498 21.4666 19.4691 21.1464 19.5479L18.9714 17.4007L23.3109 13.0604ZM12.5004 21.7499L2.75043 11.9999L12.5004 2.24994L22.2504 11.9999L12.5004 21.7499Z" fill="#010D14"/>
</svg>
