<svg width="124" height="115" viewBox="0 0 124 115" fill="none" xmlns="http://www.w3.org/2000/svg">
<g filter="url(#filter0_d_955_9280)">
<path fill-rule="evenodd" clip-rule="evenodd" d="M59.2451 6.83737C55.4169 9.46216 55.4009 14.4834 59.2136 16.863C60.3881 17.5962 60.3924 17.6098 60.1843 19.9116C59.7905 24.2594 59.7225 24.4118 58.1744 24.4118C56.2482 24.4118 52.6042 25.6362 51.1337 26.7774C50.1992 27.5028 49.1973 27.8291 47.0728 28.1001C36.7185 29.421 30.4157 32.0432 25.4156 37.1105C22.3521 40.2151 20.735 42.8576 19.2467 47.1906C18.5214 49.3025 18.2891 49.6136 17.1356 50.0172C12.548 51.6216 10.6602 55.7514 10.6602 64.1814C10.6602 72.6288 12.5462 76.7405 17.1616 78.3549C18.3242 78.7618 18.5562 79.056 19.086 80.7978C20.9649 86.9768 25.7373 92.8487 31.2232 95.7313C38.3063 99.4534 47.413 100.995 62.3498 101C76.8594 101.005 85.6657 99.5064 92.9634 95.7905C98.5293 92.9562 103.339 87.0884 105.252 80.7978C105.781 79.056 106.013 78.7618 107.176 78.3549C111.88 76.7096 113.705 72.617 113.659 63.8132C113.614 55.0587 111.709 51.4143 106.28 49.6968C105.954 49.5934 105.585 48.9269 105.451 48.1992C105.318 47.4778 104.469 45.3848 103.566 43.548C99.2637 34.8046 91.6127 30.1615 78.4234 28.2898C75.2061 27.8331 74.18 27.5349 73.1923 26.7682C71.7297 25.6337 68.0828 24.4118 66.157 24.4118C64.5742 24.4118 64.5185 24.2936 64.1681 20.1771L63.9484 17.5995L65.1262 16.863C68.9366 14.4805 68.9196 9.46143 65.0925 6.83737C64.2525 6.26108 63.3404 6 62.1688 6C60.9972 6 60.0851 6.26108 59.2451 6.83737ZM51.4917 38.8243C32.8186 40.467 27.9046 45.8484 28.0009 64.5497C28.0841 80.7425 31.8305 86.1471 44.6905 88.6265C49.8036 89.6123 57.9598 90.0762 65.9691 89.8372C85.7099 89.2484 92.7289 85.8828 95.2784 75.782C96.2505 71.9306 96.6508 67.1516 96.4355 61.972C95.7348 45.1252 90.756 40.3653 72.193 38.7967C66.8649 38.3463 56.7734 38.3599 51.4917 38.8243ZM45.2718 57.7115C43.4056 58.5574 42.8052 60.1327 42.8052 64.1814C42.8052 68.3285 43.4038 69.8269 45.4003 70.6753C47.5998 71.6106 49.6689 70.7626 50.8478 68.4427C51.5981 66.9664 51.5981 61.3965 50.8478 59.9202C49.6762 57.615 47.4394 56.7291 45.2718 57.7115ZM76.1033 57.4486C74.9857 57.7237 73.8163 58.9985 73.3392 60.4611C72.7366 62.3093 72.8343 67.1535 73.5003 68.464C74.6686 70.7618 76.7458 71.6069 78.9373 70.6753C80.9337 69.8269 81.5324 68.3285 81.5324 64.1814C81.5324 60.0682 80.929 58.5342 78.9865 57.7082C77.7245 57.1721 77.3607 57.1389 76.1033 57.4486Z" fill="white"/>
</g>
<ellipse cx="62" cy="11.5" rx="7" ry="7.5" fill="#FF4A18"/>
<defs>
<filter id="filter0_d_955_9280" x="0.660156" y="0" width="123" height="115" filterUnits="userSpaceOnUse" color-interpolation-filters="sRGB">
<feFlood flood-opacity="0" result="BackgroundImageFix"/>
<feColorMatrix in="SourceAlpha" type="matrix" values="0 0 0 0 0 0 0 0 0 0 0 0 0 0 0 0 0 0 127 0" result="hardAlpha"/>
<feOffset dy="4"/>
<feGaussianBlur stdDeviation="5"/>
<feComposite in2="hardAlpha" operator="out"/>
<feColorMatrix type="matrix" values="0 0 0 0 0 0 0 0 0 0 0 0 0 0 0 0 0 0 0.3 0"/>
<feBlend mode="normal" in2="BackgroundImageFix" result="effect1_dropShadow_955_9280"/>
<feBlend mode="normal" in="SourceGraphic" in2="effect1_dropShadow_955_9280" result="shape"/>
</filter>
</defs>
</svg>
