<svg width="18" height="18" viewBox="0 0 18 18" fill="none" xmlns="http://www.w3.org/2000/svg">
<path d="M11.8284 8.99993L13.2434 10.4139L16.0714 7.58593C16.8216 6.83576 17.243 5.81832 17.243 4.75743C17.243 3.69653 16.8216 2.67909 16.0714 1.92893C15.7 1.55748 15.259 1.26284 14.7737 1.06181C14.2884 0.86079 13.7682 0.757324 13.2429 0.757324C12.182 0.757324 11.1646 1.17876 10.4144 1.92893L7.58642 4.75693L9.00042 6.17193L11.8284 3.34293C12.2036 2.96778 12.7124 2.75702 13.2429 2.75702C13.7735 2.75702 14.2823 2.96778 14.6574 3.34293C15.0326 3.71808 15.2433 4.22689 15.2433 4.75743C15.2433 5.28797 15.0326 5.79678 14.6574 6.17193L11.8284 8.99993ZM9.00042 11.8289L10.4144 13.2429L7.58642 16.0709C6.83625 16.8211 5.81881 17.2425 4.75792 17.2425C3.69702 17.2425 2.67958 16.8211 1.92942 16.0709C1.17925 15.3208 0.757813 14.3033 0.757812 13.2424C0.757813 12.1815 1.17925 11.1641 1.92942 10.4139L4.75742 7.58593L6.17242 8.99993L3.34342 11.8289C2.9684 12.2041 2.75777 12.7128 2.75786 13.2433C2.75796 13.7737 2.96877 14.2824 3.34392 14.6574C3.71906 15.0324 4.22782 15.2431 4.75827 15.243C5.28872 15.2429 5.7974 15.0321 6.17242 14.6569L9.00042 11.8289Z" fill="#FF4A18"/>
<path d="M11.8295 7.58599C12.0171 7.39835 12.1225 7.14385 12.1225 6.87849C12.1225 6.61312 12.0171 6.35863 11.8295 6.17099C11.6418 5.98334 11.3873 5.87793 11.122 5.87793C10.8566 5.87793 10.6021 5.98334 10.4145 6.17099L6.17248 10.414C6.07697 10.5062 6.00078 10.6166 5.94837 10.7386C5.89597 10.8606 5.86838 10.9918 5.86723 11.1246C5.86607 11.2574 5.89137 11.389 5.94165 11.5119C5.99193 11.6348 6.06619 11.7465 6.16008 11.8404C6.25397 11.9343 6.36562 12.0085 6.48852 12.0588C6.61142 12.1091 6.7431 12.1344 6.87588 12.1332C7.00866 12.1321 7.13988 12.1045 7.26188 12.0521C7.38388 11.9997 7.49423 11.9235 7.58648 11.828L11.8295 7.58599Z" fill="#FF4A18"/>
</svg>
