<svg width="182" height="34" viewBox="0 0 182 34" fill="none" xmlns="http://www.w3.org/2000/svg">
<path fill-rule="evenodd" clip-rule="evenodd" d="M11.7484 0.0427651C11.5623 0.110482 11.464 0.174533 11.3298 0.315451C11.1314 0.523687 11.0544 0.722946 11.0544 1.0276C11.0544 1.50458 11.4089 1.90085 11.9145 1.98914C12.3312 2.06189 12.7964 1.81693 12.9769 1.42963C13.2122 0.924949 13.0043 0.328416 12.5097 0.0893141C12.3671 0.0204009 12.313 0.00843347 12.1135 0.00175158C11.9323 -0.00433193 11.8534 0.0045188 11.7484 0.0427651ZM23.0241 0.619477C22.7349 0.675625 22.4658 0.887176 22.3349 1.16143C22.2747 1.28769 22.2669 1.33394 22.2669 1.56579C22.2669 1.802 22.2738 1.84146 22.3379 1.96967C22.6564 2.60654 23.5728 2.69752 23.9952 2.1342C24.1147 1.97465 24.1797 1.81132 24.1916 1.64041C24.2259 1.14371 23.8837 0.711178 23.3847 0.620573C23.2171 0.590156 23.1758 0.590032 23.0241 0.619477ZM19.1566 1.27131C18.1575 1.33569 17.1244 1.61415 16.14 2.08438C15.8972 2.20037 15.3703 2.49342 15.3826 2.50559C15.3877 2.51055 15.5334 2.49756 15.7064 2.47674C17.7344 2.23253 19.5857 2.57587 21.1329 3.48321C21.656 3.78993 22.0773 4.10979 22.5271 4.54167C22.6439 4.65381 22.8381 4.57103 22.8381 4.40911V3.95301V3.1976C22.8381 3.11896 22.7875 3.04924 22.7128 3.02486C22.1863 2.85312 21.749 2.23575 21.7468 1.66105C21.7465 1.59195 21.7006 1.53134 21.6342 1.51238L21.6104 1.50557C20.9248 1.30988 19.9711 1.21883 19.1566 1.27131ZM11.4265 2.39217C11.3646 2.65563 11.0678 4.75462 11.09 4.77165C11.0929 4.77386 11.181 4.67972 11.2857 4.56246C11.4577 4.36983 11.6599 4.18222 12.0027 3.89697C12.0798 3.8328 12.1302 3.74216 12.144 3.64279L12.2119 3.15371C12.2611 2.79979 12.3013 2.49965 12.3013 2.48676C12.3013 2.4739 12.207 2.4627 12.0918 2.46191C11.9091 2.46066 11.7442 2.43002 11.4963 2.35126C11.451 2.33687 11.4377 2.3447 11.4265 2.39217ZM16.2367 2.93926C14.248 3.08858 12.6554 3.80838 11.6076 5.03139C11.3831 5.29351 11.1681 5.59741 11.1912 5.62007C11.1994 5.6281 11.3411 5.61713 11.5061 5.59566C12.2628 5.49725 13.3892 5.481 14.3198 5.55505C16.8461 5.75605 18.8937 6.37719 20.4728 7.42151C20.6311 7.52623 20.7777 7.62312 20.7987 7.63683C20.8281 7.6561 20.8518 7.64191 20.9029 7.5745C21.0184 7.42219 21.3729 7.09019 21.5238 6.99295C21.8525 6.78125 22.1609 6.66975 22.5463 6.62323L22.6164 6.61477C22.7124 6.6032 22.7873 6.52642 22.7966 6.43025C22.8053 6.33967 22.8125 6.09551 22.8126 5.88769L22.8126 5.82453C22.8127 5.62204 22.7373 5.42678 22.6012 5.27685C21.3856 3.93786 19.7741 3.14351 17.8815 2.95028C17.4851 2.90984 16.6988 2.90456 16.2367 2.93926ZM24.5139 2.95642C24.5139 2.96801 24.537 3.1395 24.5652 3.33751C24.7225 4.44024 24.8104 5.62543 24.8693 7.43737C24.9197 8.98832 24.9078 9.15491 24.7098 9.65822C23.9802 11.5133 21.4755 14.2271 16.5414 18.508C16.3389 18.6837 16.166 18.8396 16.1571 18.8544C16.1482 18.8692 16.1112 19.0609 16.0748 19.2803C15.9019 20.3241 15.8123 21.161 15.5381 24.2917C15.4453 25.3508 15.3354 26.2349 15.3242 26.012C15.3228 25.9846 15.3051 25.8165 15.2847 25.6386C15.1936 24.8419 15.1644 24.0359 15.1781 22.696C15.1957 20.9812 15.2772 19.9792 15.4793 18.9935C15.5136 18.826 15.4795 18.6517 15.3845 18.5095L14.9108 17.8002L14.5083 17.1976C14.366 16.9845 14.156 16.8256 13.9122 16.7467C13.5325 16.6238 13.4962 16.6214 13.495 16.7199C13.4948 16.7378 13.4664 16.9734 13.4318 17.2435C13.1959 19.0871 13.0385 21.5064 13.0379 23.298C13.0377 23.7479 13.085 24.1966 13.1791 24.6366L13.1914 24.6942C13.276 25.0899 13.4019 25.6829 13.4713 26.012C13.656 26.8881 13.6915 27.0491 13.7015 27.0569C13.7064 27.0608 13.9161 27.1377 14.1675 27.2278C14.4188 27.318 15.1443 27.5792 15.7797 27.8084C17.4669 28.4171 17.7184 28.5078 18.5726 28.8156C18.9985 28.9691 19.6841 29.2164 20.096 29.3653C20.508 29.5142 21.1135 29.733 21.4417 29.8516C21.7699 29.9702 22.0948 30.0951 22.1638 30.1291C22.5268 30.308 22.6789 30.5135 22.6533 30.7905C22.6241 31.1064 22.3403 31.3736 21.5877 31.7935C21.5214 31.8305 21.4671 31.8687 21.4672 31.8784C21.4673 31.9069 21.8742 32.1274 22.0972 32.2197C22.6673 32.4559 23.1091 32.484 23.484 32.3081C23.7642 32.1766 23.9032 32.0294 24.4734 31.2603C25.0973 30.4186 25.3998 30.1079 25.8548 29.8416C26.2731 29.5968 26.7536 29.4476 27.548 29.3159C29.2232 29.0384 30.3658 28.5378 31.112 27.7547C31.4574 27.3921 31.6767 27.029 31.8103 26.5979C31.8943 26.3271 31.9206 26.1893 31.9671 25.7752C32.1466 24.1785 32.5773 23.023 33.4402 21.8234C34.0196 21.0178 34.1844 20.7334 34.3215 20.3025C34.5831 19.4803 34.5559 18.5862 34.2478 17.8819C33.9586 17.2207 33.3276 16.5729 32.4925 16.0795C31.9154 15.7386 31.4644 15.6027 30.9094 15.6027C30.425 15.6027 30.0318 15.7047 29.503 15.9672C29.3494 16.0435 29.221 16.1085 29.2176 16.1117C29.2143 16.1149 29.2791 16.2457 29.3617 16.4024C29.8369 17.3039 30.1934 18.6152 30.3167 19.916C30.3594 20.3657 30.3648 21.249 30.3274 21.6613C30.1715 23.3826 29.5106 24.9771 28.5232 26.0146C28.2685 26.2823 28.1987 26.3317 28.1074 26.3092C27.9676 26.2747 27.9626 26.2404 28.0048 25.6123C28.2127 22.5191 27.5484 19.9852 26.1052 18.3665C25.9051 18.1421 25.524 17.7968 25.4763 17.7968C25.4613 17.7968 25.3743 17.8669 25.283 17.9526C24.7812 18.424 24.2579 19.2451 23.8439 20.2107C23.141 21.8502 22.6477 23.8065 22.0637 27.2711C22.0001 27.6482 21.9379 27.9848 21.9254 28.0191C21.8946 28.1036 21.8937 27.3964 21.9235 26.6478C22.039 23.7536 22.6525 21.0284 23.6018 19.193C23.9651 18.4908 24.2745 18.0568 24.7349 17.6037L24.9108 17.4306C24.9865 17.3561 24.9919 17.2358 24.9231 17.1549C24.5025 16.6604 23.9874 16.437 23.3866 16.4885C23.1725 16.5068 22.7776 16.6061 22.7144 16.6576C22.6459 16.7133 22.3398 17.0857 22.1982 17.2857C21.2848 18.5753 20.5872 20.3362 20.0497 22.7085C19.8935 23.3979 19.7682 24.0625 19.5233 25.5009C19.2845 26.9032 19.2314 27.1802 19.2064 27.1546C19.1839 27.1316 19.1365 25.9045 19.1483 25.6505C19.204 24.45 19.2556 23.9182 19.3998 23.0575C19.6472 21.5813 20.0364 20.2422 20.5764 19.0092C20.7332 18.6515 21.0862 17.9571 21.2479 17.6887C21.3126 17.5813 21.357 17.4972 21.3465 17.5019C21.336 17.5065 21.2282 17.5579 21.1069 17.6161C20.9857 17.6742 20.7857 17.7545 20.6626 17.7944C20.4336 17.8686 20.0785 17.9375 20.0532 17.9126C20.0304 17.8903 20.2892 17.5854 20.4596 17.4339C20.6337 17.2792 20.8019 17.1655 21.4925 16.7363C24.1079 15.1108 25.7082 13.6333 26.4655 12.1451C26.8276 11.4334 27.0319 10.7115 27.1342 9.78102C27.1793 9.3711 27.1791 7.693 27.1339 7.3875C27.0361 6.72555 26.8687 6.1455 26.6105 5.57317C26.2313 4.73278 25.736 4.05506 24.9627 3.31863C24.6352 3.00671 24.5139 2.90882 24.5139 2.95642ZM23.8277 2.99828C23.7467 3.04151 23.4741 3.1116 23.3867 3.1116C23.3502 3.1116 23.3205 3.14122 23.3205 3.17776L23.3203 4.23979C23.3201 5.27074 23.2986 6.47962 23.2552 7.90859C23.2393 8.43477 23.2404 8.45394 23.2859 8.43579C23.6123 8.30584 23.69 8.28973 24.0022 8.28742C24.1742 8.28613 24.3114 8.14365 24.3063 7.97173L24.2993 7.73656C24.2714 6.79678 24.2345 5.79894 24.2215 5.62977C24.2146 5.54064 24.1915 5.23771 24.17 4.95659C24.1035 4.08384 23.9622 2.9614 23.9189 2.963C23.904 2.96355 23.863 2.97943 23.8277 2.99828ZM12.2251 6.05365C10.9924 6.15313 10.1195 6.39083 9.66936 6.74966C9.47612 6.90369 9.42668 6.99744 9.43819 7.18805C9.4473 7.33889 9.53129 7.55173 9.62795 7.66882C9.67353 7.72407 9.67817 7.72464 9.78527 7.68752C10.0053 7.61127 10.3168 7.64915 10.6129 7.78819C10.7106 7.83409 11.0077 8.01351 11.273 8.18691C11.9433 8.625 12.2147 8.75171 12.6861 8.84657C13.217 8.95341 13.4905 8.90389 14.4467 8.52781C15.1582 8.248 15.6081 8.12451 16.1433 8.06215C16.6583 8.00214 16.9204 7.99252 17.2396 8.02196C17.7615 8.0701 18.1031 8.17447 18.393 8.37445C18.6897 8.57907 18.8589 8.84682 18.9287 9.2224C19.0454 9.85008 18.5783 10.7935 17.9226 11.2544C17.5648 11.5059 17.0445 11.6438 16.0336 11.755C15.4641 11.8176 13.4132 11.8178 12.6187 11.7553C11.3225 11.6533 9.98435 11.4493 9.70618 11.3112C9.65436 11.2855 9.59649 11.2645 9.57758 11.2645C9.47965 11.2645 9.38809 11.6806 9.42991 11.9356C9.48008 12.2414 9.68031 12.456 10.1051 12.6591C10.6362 12.9131 11.2992 13.0604 12.3775 13.1639C12.8301 13.2073 14.7383 13.2077 15.2592 13.1644C17.1661 13.0061 18.6109 12.6635 19.8711 12.0705C20.0646 11.9794 20.223 11.8943 20.223 11.8812C20.223 11.8683 20.2063 11.7943 20.1858 11.7169C20.003 11.0236 20.036 9.84018 20.2621 8.98318C20.3347 8.70792 20.4619 8.35015 20.5436 8.1917C20.5786 8.1238 20.5584 8.04051 20.4961 7.99622L20.438 7.95484C19.7447 7.46138 18.6378 6.93443 17.7348 6.66791C16.7659 6.38196 15.7642 6.19903 14.5652 6.08912C14.0921 6.04577 12.6026 6.02318 12.2251 6.05365ZM22.5462 7.01294C21.6501 7.17598 21.0166 7.91911 20.7478 9.12228C20.6376 9.61601 20.6171 9.82395 20.6168 10.4542C20.6165 10.9794 20.6236 11.0869 20.6745 11.3334C20.8036 11.9591 21.0747 12.5216 21.4366 12.915C21.4845 12.9671 21.5322 13.0098 21.5424 13.0098C21.5615 13.0098 21.8763 12.6667 22.3143 12.1687L22.4549 12.0089C22.516 11.9393 22.5183 11.8359 22.4602 11.7638C22.3172 11.5861 22.2179 11.4067 22.1356 11.1772C22.0662 10.9836 22.0641 10.9632 22.065 10.4791C22.0658 10.0064 22.0695 9.96883 22.1361 9.75608C22.2444 9.41015 22.4107 9.12908 22.6537 8.88123C22.7023 8.83172 22.7304 8.76572 22.7324 8.6964L22.7461 8.23299C22.7553 7.91881 22.77 7.5075 22.7787 7.31894C22.7918 7.03484 22.7885 6.97649 22.7592 6.97836C22.7398 6.97961 22.6439 6.99517 22.5462 7.01294ZM9.89548 8.27041C9.69536 8.36251 9.59248 8.51512 9.50232 8.85361C9.39358 9.26182 9.44588 10.1792 9.59393 10.4603C9.63943 10.5468 9.74703 10.6546 9.86385 10.7309C10.0218 10.8341 11.1186 11.0183 12.0601 11.0997C12.8066 11.1643 12.8565 11.1672 13.5962 11.1884C15.2411 11.2356 16.6945 11.1179 17.3041 10.8883C17.9632 10.6399 18.5083 9.72422 18.3436 9.142C18.2891 8.94915 18.0368 8.73011 17.7463 8.62338C17.4388 8.51041 16.8799 8.46259 16.3129 8.50071C15.7219 8.54048 15.2995 8.64425 14.4005 8.97074C13.6475 9.24417 13.5033 9.27865 13.1138 9.2784C12.4685 9.27798 11.8568 9.08146 10.9964 8.59825C10.344 8.23184 10.1225 8.16589 9.89548 8.27041ZM23.7246 8.77253C23.1779 8.89976 22.729 9.3262 22.5451 9.89321C22.4528 10.1777 22.4292 10.6645 22.4939 10.95C22.5359 11.1353 22.6624 11.4153 22.759 11.537C22.7834 11.5676 22.8301 11.5671 22.8538 11.5359L23.1143 11.1918C23.8247 10.2536 24.2836 9.3815 24.2946 8.94847C24.298 8.81645 24.2965 8.81344 24.2092 8.78207C24.1084 8.74582 23.8603 8.74094 23.7246 8.77253ZM20.096 12.4248C18.9744 12.9945 17.4544 13.3987 15.7473 13.5813C14.959 13.6656 14.4789 13.6896 13.5708 13.69C12.6123 13.6905 12.0554 13.6537 11.3644 13.5445C11.1494 13.5105 10.9671 13.4888 10.9594 13.4964C10.9378 13.5176 11.1227 13.8705 11.2792 14.1068C11.6706 14.6975 12.1103 15.1319 12.7259 15.5358C13.4604 16.0177 14.3486 16.3247 15.476 16.4862C15.8385 16.5382 16.8202 16.5839 17.1635 16.5648C17.8706 16.5254 17.855 16.5282 17.985 16.4185C18.3319 16.1259 19.5534 14.989 20.2971 14.2667L20.9808 13.6027C21.0736 13.5125 21.0795 13.3653 20.9942 13.268C20.7699 13.0121 20.6242 12.8013 20.4922 12.5423C20.4276 12.4155 20.3606 12.3125 20.3433 12.3134C20.326 12.3144 20.2147 12.3645 20.096 12.4248ZM25.3137 14.6553C25.0988 14.8715 24.4856 15.3903 24.0767 15.7017C23.9422 15.8041 23.8377 15.8967 23.8445 15.9074C23.8512 15.9181 23.8828 15.9269 23.9147 15.9269C24.0175 15.9269 24.3698 16.0257 24.5311 16.0998C24.9478 16.2913 25.3215 16.6205 25.6249 17.0634C25.6821 17.1469 25.7561 17.2327 25.7894 17.2542C26.0194 17.4021 26.539 17.9441 26.8218 18.3308C27.9781 19.9124 28.5216 21.9844 28.4474 24.5285C28.4364 24.9056 28.4191 25.2983 28.4089 25.4012C28.3913 25.5785 28.3926 25.5863 28.4354 25.5516C28.504 25.496 28.8842 24.9206 29.0291 24.6532C29.3922 23.9831 29.6716 23.1411 29.7977 22.337C30.1124 20.3292 29.6226 17.7427 28.6438 16.2446C28.4011 15.873 28.2074 15.6405 27.9175 15.3725C27.3175 14.8179 26.5915 14.5075 25.7961 14.4655C25.6184 14.4562 25.4451 14.523 25.3197 14.6492L25.3137 14.6553ZM12.2943 16.2152C11.9041 16.308 11.5163 16.59 11.1942 17.0149C11.063 17.1881 11.058 17.2009 11.0084 17.4886C10.8692 18.2957 10.8036 19.1506 10.7857 20.3911L10.7778 20.9393C10.7737 21.2218 10.9332 21.4813 11.1871 21.6052C11.6463 21.8294 12.0384 22.0984 12.281 22.3557C12.3336 22.4115 12.4274 22.3764 12.4304 22.2998L12.4388 22.0896C12.5041 20.4467 12.588 19.2674 12.7337 17.9464C12.789 17.4447 12.9045 16.5275 12.9256 16.4222C12.9375 16.3629 12.9229 16.3478 12.7746 16.2663C12.5941 16.1672 12.5263 16.16 12.2943 16.2152ZM15.1704 17.061C15.1704 17.0733 15.3756 17.3862 15.7386 17.9274L15.7809 17.9905C15.8627 18.1125 16.0329 18.1355 16.1443 18.0396C16.2595 17.9403 16.5283 17.7077 16.7417 17.5225L16.9698 17.3247C17.0265 17.2754 16.9931 17.1822 16.9181 17.1801C16.3698 17.1649 15.669 17.1197 15.4623 17.0861C15.2157 17.046 15.1704 17.0422 15.1704 17.061ZM10.1197 18.0025C9.72875 18.3808 9.44019 18.9892 9.2793 19.7744C9.2066 20.1291 9.13922 20.7108 9.16778 20.7368C9.18515 20.7527 9.89056 21.0475 10.1073 21.1295C10.1266 21.1368 10.1398 20.902 10.1514 20.3472C10.1715 19.3834 10.2364 18.4124 10.3123 17.9401C10.3206 17.8887 10.3169 17.8467 10.304 17.8467C10.2912 17.8467 10.2083 17.9168 10.1197 18.0025ZM0.733277 18.416C0.562047 18.5223 0.477067 18.8725 0.505351 19.3551C0.514187 19.5059 0.555065 19.9042 0.596197 20.2402C0.637328 20.5761 0.70611 21.1988 0.749044 21.6239C0.866625 22.7879 0.991138 23.9277 1.07863 24.6407C1.17877 25.457 1.20492 25.6917 1.21884 25.8998C1.29795 27.083 1.51118 28.3443 1.72676 28.9042C2.0093 29.638 2.41026 30.0011 3.35132 30.3756C3.75266 30.5352 4.98826 30.984 6.23308 31.4222C7.86924 31.9982 9.19645 32.4843 10.397 32.9474C12.4954 33.7568 13.7047 34.0913 14.1267 33.9788C14.1919 33.9615 14.2362 33.9011 14.2333 33.8337L14.2235 33.6082C14.1865 32.7538 13.6905 29.9671 12.9869 26.6603C12.3641 23.7334 12.2744 23.3939 12.0212 23.0064C11.9102 22.8365 11.574 22.5299 11.3216 22.3683C10.834 22.0563 9.56958 21.5276 6.6901 20.4321C6.03608 20.1833 4.32464 19.5399 4.02415 19.4299C3.64678 19.2918 2.57964 18.8859 2.04373 18.6766C1.38105 18.4178 1.29358 18.3918 1.04083 18.3787C0.844079 18.3685 0.801322 18.3737 0.733277 18.416ZM5.19209 23.4401C5.01535 23.4795 5.00337 23.4861 4.53906 23.7972C4.02928 24.1388 3.92071 24.2904 3.9164 24.6671C3.91383 24.891 3.96085 24.9947 4.28686 25.4845C4.42166 25.6871 4.53195 25.8571 4.53195 25.8623C4.53195 25.8675 4.35706 25.9893 4.14333 26.133C3.73971 26.4043 3.60971 26.5214 3.5111 26.7028C3.46153 26.7939 3.45288 26.847 3.45288 27.0592C3.45288 27.2735 3.46133 27.3243 3.51318 27.4207C3.61164 27.6039 3.99678 28.1478 4.10977 28.2633C4.24933 28.4059 4.44169 28.4927 4.65443 28.5091C4.9177 28.5294 5.0676 28.4701 5.5049 28.1726C5.70969 28.0333 5.8859 27.9196 5.89649 27.9199C5.90705 27.9202 6.02869 28.0884 6.16681 28.2937C6.56137 28.8803 6.72646 29.0013 7.13443 29.003C7.41966 29.0041 7.47554 28.9804 7.94906 28.6565C8.53867 28.2533 8.6594 28.0809 8.64 27.67C8.62797 27.4154 8.60438 27.3677 8.23513 26.8512C8.09455 26.6545 7.98931 26.4851 8.00129 26.4746C8.01328 26.4642 8.20248 26.3359 8.42172 26.1895C8.64099 26.0431 8.85546 25.8815 8.89832 25.8305C9.07475 25.6205 9.13302 25.2679 9.03332 25.0135C8.96951 24.8508 8.52415 24.2131 8.39306 24.0968C8.23072 23.9528 8.09841 23.8983 7.88343 23.8868C7.76204 23.8803 7.65081 23.8896 7.57659 23.9122C7.51256 23.9318 7.26983 24.0735 7.03718 24.2272C6.80456 24.381 6.6041 24.5006 6.59177 24.4931C6.5794 24.4856 6.45128 24.3099 6.30707 24.1027C6.16285 23.8956 5.98974 23.6774 5.92238 23.6179C5.73242 23.4502 5.45229 23.382 5.19209 23.4401ZM4.85616 24.1043C4.44105 24.3833 4.37481 24.4583 4.37184 24.6525C4.36961 24.7973 4.3298 24.7343 5.07365 25.7627C5.75377 26.703 6.31476 27.4833 6.66725 27.9793C6.9519 28.3799 7.009 28.4362 7.15354 28.4592C7.2743 28.4785 7.4228 28.4084 7.78116 28.1629C8.10572 27.9406 8.1713 27.8568 8.15706 27.6823C8.14771 27.5678 8.10244 27.4922 7.61247 26.7723C7.31855 26.3404 6.94222 25.7905 6.77617 25.5503C6.61015 25.3101 6.29719 24.8571 6.08074 24.5436C5.63682 23.9005 5.59005 23.8554 5.36845 23.8554C5.23035 23.8554 5.21654 23.8621 4.85616 24.1043ZM7.68031 24.3224C7.63915 24.3379 6.95827 24.7886 6.88949 24.8459C6.85163 24.8774 6.87519 24.92 7.13907 25.2967C7.29933 25.5256 7.49524 25.8054 7.57443 25.9185C7.6536 26.0316 7.72982 26.1237 7.74379 26.1231C7.79162 26.121 8.52653 25.6132 8.57485 25.5488C8.63571 25.4678 8.66679 25.3353 8.65049 25.2262C8.643 25.1761 8.55048 25.0149 8.42246 24.8289C8.18321 24.4814 8.10628 24.3911 8.0053 24.3393C7.93728 24.3044 7.75348 24.2949 7.68031 24.3224ZM4.40076 26.5351C3.96781 26.821 3.92259 26.8727 3.92259 27.0813C3.92259 27.1848 3.94674 27.2309 4.17705 27.5675C4.317 27.7719 4.46266 27.96 4.50077 27.9854C4.54914 28.0176 4.61602 28.0315 4.72238 28.0315C4.87345 28.0315 4.87784 28.0294 5.24927 27.7822C5.49708 27.6173 5.62078 27.5202 5.61478 27.4955C5.60602 27.4594 4.81924 26.2738 4.80403 26.2738C4.79989 26.2738 4.61843 26.3914 4.40076 26.5351ZM13.8249 27.7107C13.8253 27.746 14.0511 28.8733 14.0588 28.8783C14.0627 28.8808 14.123 28.9033 14.1928 28.9283C14.9745 29.2079 16.1818 29.7244 17.0746 30.161C17.7568 30.4947 18.0826 30.6686 18.0473 30.6801C18.0113 30.6919 17.5199 30.5693 16.9147 30.3975C16.32 30.2288 15.2337 29.8739 14.6375 29.6537C14.3949 29.5641 14.1909 29.4961 14.1843 29.5027C14.1776 29.5092 14.2033 29.6857 14.2413 29.895C14.2793 30.1042 14.3277 30.3708 14.3489 30.4874C14.373 30.6194 14.4626 30.7302 14.5868 30.7811L14.5949 30.7845C15.0921 30.9887 15.8632 31.4061 16.2372 31.6737C16.4517 31.8271 16.4426 31.8333 16.0941 31.7731C15.7639 31.7161 15.2882 31.5949 14.8847 31.4651C14.5514 31.3579 14.5102 31.3496 14.5102 31.3898C14.5102 31.4147 14.5441 31.6565 14.5854 31.9273C14.7005 32.6812 14.7634 33.2095 14.7812 33.5723L14.7928 33.8102C14.7954 33.8642 14.8349 33.9092 14.888 33.919C15.0291 33.945 15.4668 33.8849 15.8105 33.7924C16.3806 33.6389 16.8842 33.4377 17.865 32.9718C18.3709 32.7314 18.7816 32.5424 19.7152 32.1205C21.1312 31.4805 21.7924 31.1261 22.032 30.8787C22.0844 30.8246 22.1272 30.7667 22.1272 30.7499C22.1272 30.6608 21.9784 30.5931 21.0849 30.2755C20.6737 30.1294 20.0459 29.9056 19.6898 29.7782C15.7762 28.378 13.9061 27.7105 13.8691 27.7008C13.8447 27.6944 13.8248 27.6989 13.8249 27.7107Z" fill="#FF4A18"/>
<path d="M46.924 25.5V8.7H50.044V22.86H58.828V25.5H46.924ZM66.91 25.668C65.486 25.668 64.238 25.388 63.166 24.828C62.11 24.252 61.286 23.468 60.694 22.476C60.118 21.484 59.83 20.356 59.83 19.092C59.83 17.812 60.11 16.684 60.67 15.708C61.246 14.716 62.03 13.94 63.022 13.38C64.03 12.82 65.174 12.54 66.454 12.54C67.702 12.54 68.814 12.812 69.79 13.356C70.766 13.9 71.534 14.668 72.094 15.66C72.654 16.652 72.934 17.82 72.934 19.164C72.934 19.292 72.926 19.436 72.91 19.596C72.91 19.756 72.902 19.908 72.886 20.052H62.206V18.06H71.302L70.126 18.684C70.142 17.948 69.99 17.3 69.67 16.74C69.35 16.18 68.91 15.74 68.35 15.42C67.806 15.1 67.174 14.94 66.454 14.94C65.718 14.94 65.07 15.1 64.51 15.42C63.966 15.74 63.534 16.188 63.214 16.764C62.91 17.324 62.758 17.988 62.758 18.756V19.236C62.758 20.004 62.934 20.684 63.286 21.276C63.638 21.868 64.134 22.324 64.774 22.644C65.414 22.964 66.15 23.124 66.982 23.124C67.702 23.124 68.35 23.012 68.926 22.788C69.502 22.564 70.014 22.212 70.462 21.732L72.07 23.58C71.494 24.252 70.766 24.772 69.886 25.14C69.022 25.492 68.03 25.668 66.91 25.668ZM81.2397 25.668C80.0077 25.668 78.8957 25.396 77.9037 24.852C76.9277 24.292 76.1597 23.524 75.5997 22.548C75.0397 21.572 74.7597 20.42 74.7597 19.092C74.7597 17.764 75.0397 16.612 75.5997 15.636C76.1597 14.66 76.9277 13.9 77.9037 13.356C78.8957 12.812 80.0077 12.54 81.2397 12.54C82.3117 12.54 83.2717 12.78 84.1197 13.26C84.9677 13.724 85.6397 14.436 86.1357 15.396C86.6317 16.356 86.8797 17.588 86.8797 19.092C86.8797 20.58 86.6397 21.812 86.1597 22.788C85.6797 23.748 85.0157 24.468 84.1677 24.948C83.3197 25.428 82.3437 25.668 81.2397 25.668ZM81.5997 23.1C82.3197 23.1 82.9597 22.94 83.5197 22.62C84.0957 22.3 84.5517 21.836 84.8877 21.228C85.2397 20.62 85.4157 19.908 85.4157 19.092C85.4157 18.26 85.2397 17.548 84.8877 16.956C84.5517 16.348 84.0957 15.884 83.5197 15.564C82.9597 15.244 82.3197 15.084 81.5997 15.084C80.8797 15.084 80.2317 15.244 79.6557 15.564C79.0957 15.884 78.6397 16.348 78.2877 16.956C77.9517 17.548 77.7837 18.26 77.7837 19.092C77.7837 19.908 77.9517 20.62 78.2877 21.228C78.6397 21.836 79.0957 22.3 79.6557 22.62C80.2317 22.94 80.8797 23.1 81.5997 23.1ZM85.4877 25.5V22.476L85.6077 19.068L85.3677 15.66V7.692H88.3437V25.5H85.4877ZM98.3162 25.668C96.8922 25.668 95.6442 25.388 94.5722 24.828C93.5162 24.252 92.6922 23.468 92.1002 22.476C91.5242 21.484 91.2362 20.356 91.2362 19.092C91.2362 17.812 91.5162 16.684 92.0762 15.708C92.6522 14.716 93.4362 13.94 94.4282 13.38C95.4362 12.82 96.5802 12.54 97.8602 12.54C99.1082 12.54 100.22 12.812 101.196 13.356C102.172 13.9 102.94 14.668 103.5 15.66C104.06 16.652 104.34 17.82 104.34 19.164C104.34 19.292 104.332 19.436 104.316 19.596C104.316 19.756 104.308 19.908 104.292 20.052H93.6122V18.06H102.708L101.532 18.684C101.548 17.948 101.396 17.3 101.076 16.74C100.756 16.18 100.316 15.74 99.7562 15.42C99.2122 15.1 98.5802 14.94 97.8602 14.94C97.1242 14.94 96.4762 15.1 95.9162 15.42C95.3722 15.74 94.9402 16.188 94.6202 16.764C94.3162 17.324 94.1642 17.988 94.1642 18.756V19.236C94.1642 20.004 94.3402 20.684 94.6922 21.276C95.0442 21.868 95.5402 22.324 96.1802 22.644C96.8202 22.964 97.5562 23.124 98.3882 23.124C99.1082 23.124 99.7562 23.012 100.332 22.788C100.908 22.564 101.42 22.212 101.868 21.732L103.476 23.58C102.9 24.252 102.172 24.772 101.292 25.14C100.428 25.492 99.4362 25.668 98.3162 25.668ZM107.222 25.5V12.684H110.078V16.212L109.742 15.18C110.126 14.316 110.726 13.66 111.542 13.212C112.374 12.764 113.406 12.54 114.638 12.54V15.396C114.51 15.364 114.39 15.348 114.278 15.348C114.166 15.332 114.054 15.324 113.942 15.324C112.806 15.324 111.902 15.66 111.23 16.332C110.558 16.988 110.222 17.972 110.222 19.284V25.5H107.222Z" fill="#06091B"/>
<path d="M124.178 25.5V8.7H131.522C133.346 8.7 134.946 9.052 136.322 9.756C137.698 10.46 138.77 11.436 139.538 12.684C140.306 13.932 140.69 15.404 140.69 17.1C140.69 18.78 140.306 20.252 139.538 21.516C138.77 22.764 137.698 23.74 136.322 24.444C134.946 25.148 133.346 25.5 131.522 25.5H124.178ZM127.298 22.86H131.378C132.642 22.86 133.73 22.62 134.642 22.14C135.57 21.66 136.282 20.988 136.778 20.124C137.29 19.26 137.546 18.252 137.546 17.1C137.546 15.932 137.29 14.924 136.778 14.076C136.282 13.212 135.57 12.54 134.642 12.06C133.73 11.58 132.642 11.34 131.378 11.34H127.298V22.86ZM151.614 25.5V22.908L151.446 22.356V17.82C151.446 16.94 151.182 16.26 150.654 15.78C150.126 15.284 149.326 15.036 148.254 15.036C147.534 15.036 146.822 15.148 146.118 15.372C145.43 15.596 144.846 15.908 144.366 16.308L143.19 14.124C143.878 13.596 144.694 13.204 145.638 12.948C146.598 12.676 147.59 12.54 148.614 12.54C150.47 12.54 151.902 12.988 152.91 13.884C153.934 14.764 154.446 16.132 154.446 17.988V25.5H151.614ZM147.582 25.668C146.622 25.668 145.782 25.508 145.062 25.188C144.342 24.852 143.782 24.396 143.382 23.82C142.998 23.228 142.806 22.564 142.806 21.828C142.806 21.108 142.974 20.46 143.31 19.884C143.662 19.308 144.23 18.852 145.014 18.516C145.798 18.18 146.838 18.012 148.134 18.012H151.854V20.004H148.35C147.326 20.004 146.638 20.172 146.286 20.508C145.934 20.828 145.758 21.228 145.758 21.708C145.758 22.252 145.974 22.684 146.406 23.004C146.838 23.324 147.438 23.484 148.206 23.484C148.942 23.484 149.598 23.316 150.174 22.98C150.766 22.644 151.19 22.148 151.446 21.492L151.95 23.292C151.662 24.044 151.142 24.628 150.39 25.044C149.654 25.46 148.718 25.668 147.582 25.668ZM163.12 25.668C161.712 25.668 160.624 25.308 159.856 24.588C159.088 23.852 158.704 22.772 158.704 21.348V9.852H161.704V21.276C161.704 21.884 161.856 22.356 162.16 22.692C162.48 23.028 162.92 23.196 163.48 23.196C164.152 23.196 164.712 23.02 165.16 22.668L166 24.804C165.648 25.092 165.216 25.308 164.704 25.452C164.192 25.596 163.664 25.668 163.12 25.668ZM156.592 15.18V12.78H165.136V15.18H156.592ZM176.364 25.5V22.908L176.196 22.356V17.82C176.196 16.94 175.932 16.26 175.404 15.78C174.876 15.284 174.076 15.036 173.004 15.036C172.284 15.036 171.572 15.148 170.868 15.372C170.18 15.596 169.596 15.908 169.116 16.308L167.94 14.124C168.628 13.596 169.444 13.204 170.388 12.948C171.348 12.676 172.34 12.54 173.364 12.54C175.22 12.54 176.652 12.988 177.66 13.884C178.684 14.764 179.196 16.132 179.196 17.988V25.5H176.364ZM172.332 25.668C171.372 25.668 170.532 25.508 169.812 25.188C169.092 24.852 168.532 24.396 168.132 23.82C167.748 23.228 167.556 22.564 167.556 21.828C167.556 21.108 167.724 20.46 168.06 19.884C168.412 19.308 168.98 18.852 169.764 18.516C170.548 18.18 171.588 18.012 172.884 18.012H176.604V20.004H173.1C172.076 20.004 171.388 20.172 171.036 20.508C170.684 20.828 170.508 21.228 170.508 21.708C170.508 22.252 170.724 22.684 171.156 23.004C171.588 23.324 172.188 23.484 172.956 23.484C173.692 23.484 174.348 23.316 174.924 22.98C175.516 22.644 175.94 22.148 176.196 21.492L176.7 23.292C176.412 24.044 175.892 24.628 175.14 25.044C174.404 25.46 173.468 25.668 172.332 25.668Z" fill="#06091B"/>
</svg>
