<svg width="34" height="34" viewBox="0 0 34 34" fill="none" xmlns="http://www.w3.org/2000/svg">
<path fill-rule="evenodd" clip-rule="evenodd" d="M11.2484 0.0427651C11.0623 0.110482 10.964 0.174533 10.8298 0.315451C10.6314 0.523687 10.5544 0.722946 10.5544 1.0276C10.5544 1.50458 10.9089 1.90085 11.4145 1.98914C11.8312 2.06189 12.2964 1.81693 12.4769 1.42963C12.7122 0.924949 12.5043 0.328416 12.0097 0.0893141C11.8671 0.0204009 11.813 0.00843347 11.6135 0.00175158C11.4323 -0.00433193 11.3534 0.0045188 11.2484 0.0427651ZM22.5241 0.619477C22.2349 0.675625 21.9658 0.887176 21.8349 1.16143C21.7747 1.28769 21.7669 1.33394 21.7669 1.56579C21.7669 1.802 21.7738 1.84146 21.8379 1.96967C22.1564 2.60654 23.0728 2.69752 23.4952 2.1342C23.6147 1.97465 23.6797 1.81132 23.6916 1.64041C23.7259 1.14371 23.3837 0.711178 22.8847 0.620573C22.7171 0.590156 22.6758 0.590032 22.5241 0.619477ZM18.6566 1.27131C17.6575 1.33569 16.6244 1.61415 15.64 2.08438C15.3972 2.20037 14.8703 2.49342 14.8826 2.50559C14.8877 2.51055 15.0334 2.49756 15.2064 2.47674C17.2344 2.23253 19.0857 2.57587 20.6329 3.48321C21.156 3.78993 21.5773 4.10979 22.0271 4.54167C22.1439 4.65381 22.3381 4.57103 22.3381 4.40911V3.95301V3.1976C22.3381 3.11896 22.2875 3.04924 22.2128 3.02486C21.6863 2.85312 21.249 2.23575 21.2468 1.66105C21.2465 1.59195 21.2006 1.53134 21.1342 1.51238L21.1104 1.50557C20.4248 1.30988 19.4711 1.21883 18.6566 1.27131ZM10.9265 2.39217C10.8646 2.65563 10.5678 4.75462 10.59 4.77165C10.5929 4.77386 10.681 4.67972 10.7857 4.56246C10.9577 4.36983 11.1599 4.18222 11.5027 3.89697C11.5798 3.8328 11.6302 3.74216 11.644 3.64279L11.7119 3.15371C11.7611 2.79979 11.8013 2.49965 11.8013 2.48676C11.8013 2.4739 11.707 2.4627 11.5918 2.46191C11.4091 2.46066 11.2442 2.43002 10.9963 2.35126C10.951 2.33687 10.9377 2.3447 10.9265 2.39217ZM15.7367 2.93926C13.748 3.08858 12.1554 3.80838 11.1076 5.03139C10.8831 5.29351 10.6681 5.59741 10.6912 5.62007C10.6994 5.6281 10.8411 5.61713 11.0061 5.59566C11.7628 5.49725 12.8892 5.481 13.8198 5.55505C16.3461 5.75605 18.3937 6.37719 19.9728 7.42151C20.1311 7.52623 20.2777 7.62312 20.2987 7.63683C20.3281 7.6561 20.3518 7.64191 20.4029 7.5745C20.5184 7.42219 20.8729 7.09019 21.0238 6.99295C21.3525 6.78125 21.6609 6.66975 22.0463 6.62323L22.1164 6.61477C22.2124 6.6032 22.2873 6.52642 22.2966 6.43025C22.3053 6.33967 22.3125 6.09551 22.3126 5.88769L22.3126 5.82453C22.3127 5.62204 22.2373 5.42678 22.1012 5.27685C20.8856 3.93786 19.2741 3.14351 17.3815 2.95028C16.9851 2.90984 16.1988 2.90456 15.7367 2.93926ZM24.0139 2.95642C24.0139 2.96801 24.037 3.1395 24.0652 3.33751C24.2225 4.44024 24.3104 5.62543 24.3693 7.43737C24.4197 8.98832 24.4078 9.15491 24.2098 9.65822C23.4802 11.5133 20.9755 14.2271 16.0414 18.508C15.8389 18.6837 15.666 18.8396 15.6571 18.8544C15.6482 18.8692 15.6112 19.0609 15.5748 19.2803C15.4019 20.3241 15.3123 21.161 15.0381 24.2917C14.9453 25.3508 14.8354 26.2349 14.8242 26.012C14.8228 25.9846 14.8051 25.8165 14.7847 25.6386C14.6936 24.8419 14.6644 24.0359 14.6781 22.696C14.6957 20.9812 14.7772 19.9792 14.9793 18.9935C15.0136 18.826 14.9795 18.6517 14.8845 18.5095L14.4108 17.8002L14.0083 17.1976C13.866 16.9845 13.656 16.8256 13.4122 16.7467C13.0325 16.6238 12.9962 16.6214 12.995 16.7199C12.9948 16.7378 12.9664 16.9734 12.9318 17.2435C12.6959 19.0871 12.5385 21.5064 12.5379 23.298C12.5377 23.7479 12.585 24.1966 12.6791 24.6366L12.6914 24.6942C12.776 25.0899 12.9019 25.6829 12.9713 26.012C13.156 26.8881 13.1915 27.0491 13.2015 27.0569C13.2064 27.0608 13.4161 27.1377 13.6675 27.2278C13.9188 27.318 14.6443 27.5792 15.2797 27.8084C16.9669 28.4171 17.2184 28.5078 18.0726 28.8156C18.4985 28.9691 19.1841 29.2164 19.596 29.3653C20.008 29.5142 20.6135 29.733 20.9417 29.8516C21.2699 29.9702 21.5948 30.0951 21.6638 30.1291C22.0268 30.308 22.1789 30.5135 22.1533 30.7905C22.1241 31.1064 21.8403 31.3736 21.0877 31.7935C21.0214 31.8305 20.9671 31.8687 20.9672 31.8784C20.9673 31.9069 21.3742 32.1274 21.5972 32.2197C22.1673 32.4559 22.6091 32.484 22.984 32.3081C23.2642 32.1766 23.4032 32.0294 23.9734 31.2603C24.5973 30.4186 24.8998 30.1079 25.3548 29.8416C25.7731 29.5968 26.2536 29.4476 27.048 29.3159C28.7232 29.0384 29.8658 28.5378 30.612 27.7547C30.9574 27.3921 31.1767 27.029 31.3103 26.5979C31.3943 26.3271 31.4206 26.1893 31.4671 25.7752C31.6466 24.1785 32.0773 23.023 32.9402 21.8234C33.5196 21.0178 33.6844 20.7334 33.8215 20.3025C34.0831 19.4803 34.0559 18.5862 33.7478 17.8819C33.4586 17.2207 32.8276 16.5729 31.9925 16.0795C31.4154 15.7386 30.9644 15.6027 30.4094 15.6027C29.925 15.6027 29.5318 15.7047 29.003 15.9672C28.8494 16.0435 28.721 16.1085 28.7176 16.1117C28.7143 16.1149 28.7791 16.2457 28.8617 16.4024C29.3369 17.3039 29.6934 18.6152 29.8167 19.916C29.8594 20.3657 29.8648 21.249 29.8274 21.6613C29.6715 23.3826 29.0106 24.9771 28.0232 26.0146C27.7685 26.2823 27.6987 26.3317 27.6074 26.3092C27.4676 26.2747 27.4626 26.2404 27.5048 25.6123C27.7127 22.5191 27.0484 19.9852 25.6052 18.3665C25.4051 18.1421 25.024 17.7968 24.9763 17.7968C24.9613 17.7968 24.8743 17.8669 24.783 17.9526C24.2812 18.424 23.7579 19.2451 23.3439 20.2107C22.641 21.8502 22.1477 23.8065 21.5637 27.2711C21.5001 27.6482 21.4379 27.9848 21.4254 28.0191C21.3946 28.1036 21.3937 27.3964 21.4235 26.6478C21.539 23.7536 22.1525 21.0284 23.1018 19.193C23.4651 18.4908 23.7745 18.0568 24.2349 17.6037L24.4108 17.4306C24.4865 17.3561 24.4919 17.2358 24.4231 17.1549C24.0025 16.6604 23.4874 16.437 22.8866 16.4885C22.6725 16.5068 22.2776 16.6061 22.2144 16.6576C22.1459 16.7133 21.8398 17.0857 21.6982 17.2857C20.7848 18.5753 20.0872 20.3362 19.5497 22.7085C19.3935 23.3979 19.2682 24.0625 19.0233 25.5009C18.7845 26.9032 18.7314 27.1802 18.7064 27.1546C18.6839 27.1316 18.6365 25.9045 18.6483 25.6505C18.704 24.45 18.7556 23.9182 18.8998 23.0575C19.1472 21.5813 19.5364 20.2422 20.0764 19.0092C20.2332 18.6515 20.5862 17.9571 20.7479 17.6887C20.8126 17.5813 20.857 17.4972 20.8465 17.5019C20.836 17.5065 20.7282 17.5579 20.6069 17.6161C20.4857 17.6742 20.2857 17.7545 20.1626 17.7944C19.9336 17.8686 19.5785 17.9375 19.5532 17.9126C19.5304 17.8903 19.7892 17.5854 19.9596 17.4339C20.1337 17.2792 20.3019 17.1655 20.9925 16.7363C23.6079 15.1108 25.2082 13.6333 25.9655 12.1451C26.3276 11.4334 26.5319 10.7115 26.6342 9.78102C26.6793 9.3711 26.6791 7.693 26.6339 7.3875C26.5361 6.72555 26.3687 6.1455 26.1105 5.57317C25.7313 4.73278 25.236 4.05506 24.4627 3.31863C24.1352 3.00671 24.0139 2.90882 24.0139 2.95642ZM23.3277 2.99828C23.2467 3.04151 22.9741 3.1116 22.8867 3.1116C22.8502 3.1116 22.8205 3.14122 22.8205 3.17776L22.8203 4.23979C22.8201 5.27074 22.7986 6.47962 22.7552 7.90859C22.7393 8.43477 22.7404 8.45394 22.7859 8.43579C23.1123 8.30584 23.19 8.28973 23.5022 8.28742C23.6742 8.28613 23.8114 8.14365 23.8063 7.97173L23.7993 7.73656C23.7714 6.79678 23.7345 5.79894 23.7215 5.62977C23.7146 5.54064 23.6915 5.23771 23.67 4.95659C23.6035 4.08384 23.4622 2.9614 23.4189 2.963C23.404 2.96355 23.363 2.97943 23.3277 2.99828ZM11.7251 6.05365C10.4924 6.15313 9.61953 6.39083 9.16936 6.74966C8.97612 6.90369 8.92668 6.99744 8.93819 7.18805C8.9473 7.33889 9.03129 7.55173 9.12795 7.66882C9.17353 7.72407 9.17817 7.72464 9.28527 7.68752C9.50535 7.61127 9.81676 7.64915 10.1129 7.78819C10.2106 7.83409 10.5077 8.01351 10.773 8.18691C11.4433 8.625 11.7147 8.75171 12.1861 8.84657C12.717 8.95341 12.9905 8.90389 13.9467 8.52781C14.6582 8.248 15.1081 8.12451 15.6433 8.06215C16.1583 8.00214 16.4204 7.99252 16.7396 8.02196C17.2615 8.0701 17.6031 8.17447 17.893 8.37445C18.1897 8.57907 18.3589 8.84682 18.4287 9.2224C18.5454 9.85008 18.0783 10.7935 17.4226 11.2544C17.0648 11.5059 16.5445 11.6438 15.5336 11.755C14.9641 11.8176 12.9132 11.8178 12.1187 11.7553C10.8225 11.6533 9.48435 11.4493 9.20618 11.3112C9.15436 11.2855 9.09649 11.2645 9.07758 11.2645C8.97965 11.2645 8.88809 11.6806 8.92991 11.9356C8.98008 12.2414 9.18031 12.456 9.60505 12.6591C10.1362 12.9131 10.7992 13.0604 11.8775 13.1639C12.3301 13.2073 14.2383 13.2077 14.7592 13.1644C16.6661 13.0061 18.1109 12.6635 19.3711 12.0705C19.5646 11.9794 19.723 11.8943 19.723 11.8812C19.723 11.8683 19.7063 11.7943 19.6858 11.7169C19.503 11.0236 19.536 9.84018 19.7621 8.98318C19.8347 8.70792 19.9619 8.35015 20.0436 8.1917C20.0786 8.1238 20.0584 8.04051 19.9961 7.99622L19.938 7.95484C19.2447 7.46138 18.1378 6.93443 17.2348 6.66791C16.2659 6.38196 15.2642 6.19903 14.0652 6.08912C13.5921 6.04577 12.1026 6.02318 11.7251 6.05365ZM22.0462 7.01294C21.1501 7.17598 20.5166 7.91911 20.2478 9.12228C20.1376 9.61601 20.1171 9.82395 20.1168 10.4542C20.1165 10.9794 20.1236 11.0869 20.1745 11.3334C20.3036 11.9591 20.5747 12.5216 20.9366 12.915C20.9845 12.9671 21.0322 13.0098 21.0424 13.0098C21.0615 13.0098 21.3763 12.6667 21.8143 12.1687L21.9549 12.0089C22.016 11.9393 22.0183 11.8359 21.9602 11.7638C21.8172 11.5861 21.7179 11.4067 21.6356 11.1772C21.5662 10.9836 21.5641 10.9632 21.565 10.4791C21.5658 10.0064 21.5695 9.96883 21.6361 9.75608C21.7444 9.41015 21.9107 9.12908 22.1537 8.88123C22.2023 8.83172 22.2304 8.76572 22.2324 8.6964L22.2461 8.23299C22.2553 7.91881 22.27 7.5075 22.2787 7.31894C22.2918 7.03484 22.2885 6.97649 22.2592 6.97836C22.2398 6.97961 22.1439 6.99517 22.0462 7.01294ZM9.39548 8.27041C9.19536 8.36251 9.09248 8.51512 9.00232 8.85361C8.89358 9.26182 8.94588 10.1792 9.09393 10.4603C9.13943 10.5468 9.24703 10.6546 9.36385 10.7309C9.52183 10.8341 10.6186 11.0183 11.5601 11.0997C12.3066 11.1643 12.3565 11.1672 13.0962 11.1884C14.7411 11.2356 16.1945 11.1179 16.8041 10.8883C17.4632 10.6399 18.0083 9.72422 17.8436 9.142C17.7891 8.94915 17.5368 8.73011 17.2463 8.62338C16.9388 8.51041 16.3799 8.46259 15.8129 8.50071C15.2219 8.54048 14.7995 8.64425 13.9005 8.97074C13.1475 9.24417 13.0033 9.27865 12.6138 9.2784C11.9685 9.27798 11.3568 9.08146 10.4964 8.59825C9.84398 8.23184 9.62255 8.16589 9.39548 8.27041ZM23.2246 8.77253C22.6779 8.89976 22.229 9.3262 22.0451 9.89321C21.9528 10.1777 21.9292 10.6645 21.9939 10.95C22.0359 11.1353 22.1624 11.4153 22.259 11.537C22.2834 11.5676 22.3301 11.5671 22.3538 11.5359L22.6143 11.1918C23.3247 10.2536 23.7836 9.3815 23.7946 8.94847C23.798 8.81645 23.7965 8.81344 23.7092 8.78207C23.6084 8.74582 23.3603 8.74094 23.2246 8.77253ZM19.596 12.4248C18.4744 12.9945 16.9544 13.3987 15.2473 13.5813C14.459 13.6656 13.9789 13.6896 13.0708 13.69C12.1123 13.6905 11.5554 13.6537 10.8644 13.5445C10.6494 13.5105 10.4671 13.4888 10.4594 13.4964C10.4378 13.5176 10.6227 13.8705 10.7792 14.1068C11.1706 14.6975 11.6103 15.1319 12.2259 15.5358C12.9604 16.0177 13.8486 16.3247 14.976 16.4862C15.3385 16.5382 16.3202 16.5839 16.6635 16.5648C17.3706 16.5254 17.355 16.5282 17.485 16.4185C17.8319 16.1259 19.0534 14.989 19.7971 14.2667L20.4808 13.6027C20.5736 13.5125 20.5795 13.3653 20.4942 13.268C20.2699 13.0121 20.1242 12.8013 19.9922 12.5423C19.9276 12.4155 19.8606 12.3125 19.8433 12.3134C19.826 12.3144 19.7147 12.3645 19.596 12.4248ZM24.8137 14.6553C24.5988 14.8715 23.9856 15.3903 23.5767 15.7017C23.4422 15.8041 23.3377 15.8967 23.3445 15.9074C23.3512 15.9181 23.3828 15.9269 23.4147 15.9269C23.5175 15.9269 23.8698 16.0257 24.0311 16.0998C24.4478 16.2913 24.8215 16.6205 25.1249 17.0634C25.1821 17.1469 25.2561 17.2327 25.2894 17.2542C25.5194 17.4021 26.039 17.9441 26.3218 18.3308C27.4781 19.9124 28.0216 21.9844 27.9474 24.5285C27.9364 24.9056 27.9191 25.2983 27.9089 25.4012C27.8913 25.5785 27.8926 25.5863 27.9354 25.5516C28.004 25.496 28.3842 24.9206 28.5291 24.6532C28.8922 23.9831 29.1716 23.1411 29.2977 22.337C29.6124 20.3292 29.1226 17.7427 28.1438 16.2446C27.9011 15.873 27.7074 15.6405 27.4175 15.3725C26.8175 14.8179 26.0915 14.5075 25.2961 14.4655C25.1184 14.4562 24.9451 14.523 24.8197 14.6492L24.8137 14.6553ZM11.7943 16.2152C11.4041 16.308 11.0163 16.59 10.6942 17.0149C10.563 17.1881 10.558 17.2009 10.5084 17.4886C10.3692 18.2957 10.3036 19.1506 10.2857 20.3911L10.2778 20.9393C10.2737 21.2218 10.4332 21.4813 10.6871 21.6052C11.1463 21.8294 11.5384 22.0984 11.781 22.3557C11.8336 22.4115 11.9274 22.3764 11.9304 22.2998L11.9388 22.0896C12.0041 20.4467 12.088 19.2674 12.2337 17.9464C12.289 17.4447 12.4045 16.5275 12.4256 16.4222C12.4375 16.3629 12.4229 16.3478 12.2746 16.2663C12.0941 16.1672 12.0263 16.16 11.7943 16.2152ZM14.6704 17.061C14.6704 17.0733 14.8756 17.3862 15.2386 17.9274L15.2809 17.9905C15.3627 18.1125 15.5329 18.1355 15.6443 18.0396C15.7595 17.9403 16.0283 17.7077 16.2417 17.5225L16.4698 17.3247C16.5265 17.2754 16.4931 17.1822 16.4181 17.1801C15.8698 17.1649 15.169 17.1197 14.9623 17.0861C14.7157 17.046 14.6704 17.0422 14.6704 17.061ZM9.61968 18.0025C9.22875 18.3808 8.94019 18.9892 8.7793 19.7744C8.7066 20.1291 8.63922 20.7108 8.66778 20.7368C8.68515 20.7527 9.39056 21.0475 9.60726 21.1295C9.62661 21.1368 9.63984 20.902 9.65139 20.3472C9.67145 19.3834 9.73637 18.4124 9.81231 17.9401C9.82059 17.8887 9.81686 17.8467 9.80404 17.8467C9.79121 17.8467 9.70827 17.9168 9.61968 18.0025ZM0.233277 18.416C0.0620468 18.5223 -0.0229333 18.8725 0.0053512 19.3551C0.0141869 19.5059 0.0550649 19.9042 0.0961967 20.2402C0.137328 20.5761 0.20611 21.1988 0.249044 21.6239C0.366625 22.7879 0.491138 23.9277 0.578632 24.6407C0.67877 25.457 0.704921 25.6917 0.718835 25.8998C0.79795 27.083 1.01118 28.3443 1.22676 28.9042C1.5093 29.638 1.91026 30.0011 2.85132 30.3756C3.25266 30.5352 4.48826 30.984 5.73308 31.4222C7.36924 31.9982 8.69645 32.4843 9.89704 32.9474C11.9954 33.7568 13.2047 34.0913 13.6267 33.9788C13.6919 33.9615 13.7362 33.9011 13.7333 33.8337L13.7235 33.6082C13.6865 32.7538 13.1905 29.9671 12.4869 26.6603C11.8641 23.7334 11.7744 23.3939 11.5212 23.0064C11.4102 22.8365 11.074 22.5299 10.8216 22.3683C10.334 22.0563 9.06958 21.5276 6.1901 20.4321C5.53608 20.1833 3.82464 19.5399 3.52415 19.4299C3.14678 19.2918 2.07964 18.8859 1.54373 18.6766C0.881052 18.4178 0.793584 18.3918 0.540826 18.3787C0.344079 18.3685 0.301322 18.3737 0.233277 18.416ZM4.69209 23.4401C4.51535 23.4795 4.50337 23.4861 4.03906 23.7972C3.52928 24.1388 3.42071 24.2904 3.4164 24.6671C3.41383 24.891 3.46085 24.9947 3.78686 25.4845C3.92166 25.6871 4.03195 25.8571 4.03195 25.8623C4.03195 25.8675 3.85706 25.9893 3.64333 26.133C3.23971 26.4043 3.10971 26.5214 3.0111 26.7028C2.96153 26.7939 2.95288 26.847 2.95288 27.0592C2.95288 27.2735 2.96133 27.3243 3.01318 27.4207C3.11164 27.6039 3.49678 28.1478 3.60977 28.2633C3.74933 28.4059 3.94169 28.4927 4.15443 28.5091C4.4177 28.5294 4.5676 28.4701 5.0049 28.1726C5.20969 28.0333 5.3859 27.9196 5.39649 27.9199C5.40705 27.9202 5.52869 28.0884 5.66681 28.2937C6.06137 28.8803 6.22646 29.0013 6.63443 29.003C6.91966 29.0041 6.97554 28.9804 7.44906 28.6565C8.03867 28.2533 8.1594 28.0809 8.14 27.67C8.12797 27.4154 8.10438 27.3677 7.73513 26.8512C7.59455 26.6545 7.48931 26.4851 7.50129 26.4746C7.51328 26.4642 7.70248 26.3359 7.92172 26.1895C8.14099 26.0431 8.35546 25.8815 8.39832 25.8305C8.57475 25.6205 8.63302 25.2679 8.53332 25.0135C8.46951 24.8508 8.02415 24.2131 7.89306 24.0968C7.73072 23.9528 7.59841 23.8983 7.38343 23.8868C7.26204 23.8803 7.15081 23.8896 7.07659 23.9122C7.01256 23.9318 6.76983 24.0735 6.53718 24.2272C6.30456 24.381 6.1041 24.5006 6.09177 24.4931C6.0794 24.4856 5.95128 24.3099 5.80707 24.1027C5.66285 23.8956 5.48974 23.6774 5.42238 23.6179C5.23242 23.4502 4.95229 23.382 4.69209 23.4401ZM4.35616 24.1043C3.94105 24.3833 3.87481 24.4583 3.87184 24.6525C3.86961 24.7973 3.8298 24.7343 4.57365 25.7627C5.25377 26.703 5.81476 27.4833 6.16725 27.9793C6.4519 28.3799 6.509 28.4362 6.65354 28.4592C6.7743 28.4785 6.9228 28.4084 7.28116 28.1629C7.60572 27.9406 7.6713 27.8568 7.65706 27.6823C7.64771 27.5678 7.60244 27.4922 7.11247 26.7723C6.81855 26.3404 6.44222 25.7905 6.27617 25.5503C6.11015 25.3101 5.79719 24.8571 5.58074 24.5436C5.13682 23.9005 5.09005 23.8554 4.86845 23.8554C4.73035 23.8554 4.71654 23.8621 4.35616 24.1043ZM7.18031 24.3224C7.13915 24.3379 6.45827 24.7886 6.38949 24.8459C6.35163 24.8774 6.37519 24.92 6.63907 25.2967C6.79933 25.5256 6.99524 25.8054 7.07443 25.9185C7.1536 26.0316 7.22982 26.1237 7.24379 26.1231C7.29162 26.121 8.02653 25.6132 8.07485 25.5488C8.13571 25.4678 8.16679 25.3353 8.15049 25.2262C8.143 25.1761 8.05048 25.0149 7.92246 24.8289C7.68321 24.4814 7.60628 24.3911 7.5053 24.3393C7.43728 24.3044 7.25348 24.2949 7.18031 24.3224ZM3.90076 26.5351C3.46781 26.821 3.42259 26.8727 3.42259 27.0813C3.42259 27.1848 3.44674 27.2309 3.67705 27.5675C3.817 27.7719 3.96266 27.96 4.00077 27.9854C4.04914 28.0176 4.11602 28.0315 4.22238 28.0315C4.37345 28.0315 4.37784 28.0294 4.74927 27.7822C4.99708 27.6173 5.12078 27.5202 5.11478 27.4955C5.10602 27.4594 4.31924 26.2738 4.30403 26.2738C4.29989 26.2738 4.11843 26.3914 3.90076 26.5351ZM13.3249 27.7107C13.3253 27.746 13.5511 28.8733 13.5588 28.8783C13.5627 28.8808 13.623 28.9033 13.6928 28.9283C14.4745 29.2079 15.6818 29.7244 16.5746 30.161C17.2568 30.4947 17.5826 30.6686 17.5473 30.6801C17.5113 30.6919 17.0199 30.5693 16.4147 30.3975C15.82 30.2288 14.7337 29.8739 14.1375 29.6537C13.8949 29.5641 13.6909 29.4961 13.6843 29.5027C13.6776 29.5092 13.7033 29.6857 13.7413 29.895C13.7793 30.1042 13.8277 30.3708 13.8489 30.4874C13.873 30.6194 13.9626 30.7302 14.0868 30.7811L14.0949 30.7845C14.5921 30.9887 15.3632 31.4061 15.7372 31.6737C15.9517 31.8271 15.9426 31.8333 15.5941 31.7731C15.2639 31.7161 14.7882 31.5949 14.3847 31.4651C14.0514 31.3579 14.0102 31.3496 14.0102 31.3898C14.0102 31.4147 14.0441 31.6565 14.0854 31.9273C14.2005 32.6812 14.2634 33.2095 14.2812 33.5723L14.2928 33.8102C14.2954 33.8642 14.3349 33.9092 14.388 33.919C14.5291 33.945 14.9668 33.8849 15.3105 33.7924C15.8806 33.6389 16.3842 33.4377 17.365 32.9718C17.8709 32.7314 18.2816 32.5424 19.2152 32.1205C20.6312 31.4805 21.2924 31.1261 21.532 30.8787C21.5844 30.8246 21.6272 30.7667 21.6272 30.7499C21.6272 30.6608 21.4784 30.5931 20.5849 30.2755C20.1737 30.1294 19.5459 29.9056 19.1898 29.7782C15.2762 28.378 13.4061 27.7105 13.3691 27.7008C13.3447 27.6944 13.3248 27.6989 13.3249 27.7107Z" fill="white"/>
</svg>
