<svg width="60" height="60" viewBox="0 0 70 70" fill="none" xmlns="http://www.w3.org/2000/svg">
<rect x="0.3125" width="69.375" height="70" rx="10" fill="#FC513C" fill-opacity="0.05"/>
<path fill-rule="evenodd" clip-rule="evenodd" d="M26.6475 10.0629C26.3773 10.1625 26.2345 10.2567 26.0396 10.4639C25.7515 10.7701 25.6396 11.0632 25.6396 11.5112C25.6396 12.2126 26.1544 12.7954 26.8888 12.9252C27.4939 13.0322 28.1694 12.672 28.4316 12.1024C28.7733 11.3602 28.4713 10.483 27.753 10.1313C27.546 10.03 27.4674 10.0124 27.1776 10.0026C26.9145 9.99363 26.8 10.0066 26.6475 10.0629ZM43.0222 10.911C42.6021 10.9936 42.2114 11.3047 42.0213 11.708C41.9338 11.8937 41.9225 11.9617 41.9225 12.3026C41.9225 12.65 41.9325 12.708 42.0256 12.8966C42.4881 13.8331 43.819 13.9669 44.4323 13.1385C44.606 12.9039 44.7003 12.6637 44.7175 12.4124C44.7674 11.6819 44.2704 11.0458 43.5458 10.9126C43.3023 10.8679 43.2424 10.8677 43.0222 10.911ZM37.4057 11.8696C35.9549 11.9642 34.4545 12.3738 33.025 13.0653C32.6724 13.2358 31.9072 13.6668 31.9252 13.6847C31.9325 13.692 32.144 13.6729 32.3953 13.6423C35.3405 13.2831 38.0289 13.788 40.2758 15.1224C41.0354 15.5734 41.6472 16.0438 42.3004 16.6789C42.4691 16.843 42.7521 16.7234 42.7521 16.4881V15.8133V14.7002C42.7521 14.5857 42.6787 14.4842 42.57 14.4483C41.8054 14.1958 41.1704 13.2879 41.1672 12.4427C41.1669 12.341 41.0995 12.2518 41.0018 12.2235L40.9691 12.2141C39.9736 11.9263 38.5885 11.7924 37.4057 11.8696ZM26.1801 13.5179C26.0901 13.9053 25.6591 16.9921 25.6914 17.0171C25.6956 17.0204 25.8234 16.8819 25.9755 16.7095C26.2254 16.4262 26.519 16.1503 27.0168 15.7308C27.1289 15.6364 27.2019 15.5038 27.2218 15.3587L27.3207 14.6378C27.392 14.1173 27.4504 13.676 27.4504 13.657C27.4504 13.6381 27.3135 13.6216 27.1462 13.6205C26.8809 13.6186 26.6414 13.5736 26.2814 13.4577C26.2156 13.4366 26.1963 13.4481 26.1801 13.5179ZM33.1655 14.3224C30.2775 14.542 27.9646 15.6006 26.4431 17.3991C26.117 17.7846 25.8048 18.2315 25.8383 18.2648C25.8502 18.2766 26.056 18.2605 26.2957 18.2289C27.3945 18.0842 29.0303 18.0603 30.3817 18.1692C34.0503 18.4648 37.0239 19.3782 39.3171 20.914C39.5469 21.068 39.76 21.2105 39.7903 21.2306C39.833 21.259 39.8674 21.2381 39.9417 21.139C40.1094 20.915 40.6242 20.4267 40.8434 20.2837C41.3207 19.9724 41.7686 19.8085 42.3282 19.74L42.4272 19.728C42.5682 19.7107 42.6782 19.5977 42.6917 19.4563C42.7043 19.323 42.7148 18.964 42.7149 18.6584L42.715 18.5629C42.7151 18.2666 42.6058 17.9807 42.408 17.7601C40.6426 15.791 38.3025 14.6228 35.5539 14.3387C34.9784 14.2792 33.8365 14.2714 33.1655 14.3224ZM45.1856 14.3477C45.1856 14.3647 45.2191 14.6169 45.2601 14.9081C45.4885 16.5298 45.6161 18.2727 45.7017 20.9373C45.775 23.2181 45.7576 23.4631 45.4701 24.2033C44.4106 26.9314 40.7732 30.9222 33.6079 37.2177C33.3139 37.476 33.0627 37.7053 33.0498 37.7271C33.0369 37.7489 32.9831 38.0307 32.9303 38.3533C32.6793 39.8884 32.5491 41.1191 32.1509 45.7231C32.0161 47.2806 31.8565 48.5808 31.8403 48.253C31.8383 48.2126 31.8125 47.9655 31.7829 47.7038C31.6506 46.5323 31.6082 45.347 31.6281 43.3765C31.6536 40.8548 31.772 39.3811 32.0655 37.9317C32.1154 37.6851 32.0657 37.4288 31.9272 37.2188L31.2399 36.1767L30.6531 35.2869C30.448 34.9759 30.1437 34.7435 29.7898 34.6275C29.2384 34.4467 29.1856 34.4433 29.1839 34.5881C29.1836 34.6145 29.1423 34.9609 29.0921 35.3581C28.7496 38.0693 28.521 41.627 28.52 44.2617C28.5198 44.9234 28.5886 45.5833 28.7252 46.2308L28.743 46.315C28.8658 46.8969 29.0488 47.769 29.1496 48.253C29.4178 49.5413 29.4693 49.7781 29.4838 49.7896C29.4909 49.7953 29.7954 49.9084 30.1605 50.0409C30.5255 50.1735 31.5791 50.5577 32.5018 50.8948C34.9519 51.7898 35.3172 51.9232 36.5577 52.3758C37.1762 52.6015 38.1717 52.9653 38.77 53.1843C39.3682 53.4032 40.2476 53.725 40.7241 53.8994C41.2007 54.0738 41.6726 54.2574 41.7727 54.3074C42.3 54.5707 42.5208 54.8728 42.4837 55.2801C42.4412 55.7448 42.0291 56.1376 40.9362 56.7551C40.8398 56.8096 40.7611 56.8658 40.7611 56.88C40.7613 56.922 41.3522 57.2462 41.6761 57.382C42.504 57.7292 43.1456 57.7706 43.69 57.5119C44.0969 57.3186 44.2988 57.102 45.1268 55.971C46.0329 54.7332 46.4722 54.2764 47.1329 53.8847C47.7403 53.5246 48.4381 53.3052 49.5917 53.1117C52.0245 52.7035 53.6838 51.9674 54.7674 50.8158C55.2691 50.2825 55.5874 49.7485 55.7815 49.1146C55.9035 48.7163 55.9416 48.5136 56.0092 47.9046C56.2699 45.5566 56.8954 43.8573 58.1484 42.0932C58.9899 40.9085 59.2292 40.4903 59.4283 39.8566C59.8082 38.6476 59.7687 37.3326 59.3213 36.297C58.9012 35.3246 57.985 34.3718 56.7722 33.6463C55.9342 33.145 55.2792 32.9452 54.4732 32.9452C53.7698 32.9452 53.1987 33.0951 52.4308 33.4812C52.2078 33.5934 52.0213 33.689 52.0164 33.6937C52.0115 33.6984 52.1056 33.8908 52.2256 34.1212C52.9158 35.4469 53.4334 37.3753 53.6125 39.2883C53.6744 39.9496 53.6823 41.2485 53.6281 41.8549C53.4016 44.3861 52.4419 46.7311 51.008 48.2567C50.638 48.6504 50.5367 48.7231 50.4041 48.69C50.2011 48.6393 50.1938 48.5889 50.2551 47.6652C50.5571 43.1164 49.5924 39.39 47.4965 37.0095C47.2059 36.6795 46.6525 36.1717 46.5833 36.1717C46.5614 36.1717 46.4351 36.2748 46.3025 36.4009C45.5738 37.0941 44.8139 38.3016 44.2127 39.7216C43.1919 42.1326 42.4756 45.0096 41.6274 50.1046C41.5351 50.6591 41.4447 51.1541 41.4266 51.2045C41.3819 51.3289 41.3805 50.2888 41.4239 49.1879C41.5915 44.9318 42.4825 40.9242 43.8611 38.225C44.3886 37.1923 44.8379 36.5541 45.5066 35.8878L45.7618 35.6334C45.8722 35.5234 45.88 35.3472 45.7798 35.2278C45.1691 34.5006 44.4211 34.172 43.5486 34.2477C43.2376 34.2747 42.6642 34.4208 42.5723 34.4965C42.4729 34.5783 42.0284 35.1261 41.8228 35.4201C40.4964 37.3167 39.4832 39.9062 38.7027 43.3948C38.4758 44.4087 38.2939 45.386 37.9382 47.5013C37.5915 49.5635 37.5144 49.9709 37.478 49.9332C37.4453 49.8994 37.3766 48.0948 37.3937 47.7213C37.4746 45.9559 37.5495 45.1739 37.7589 43.9081C38.1181 41.7372 38.6833 39.768 39.4676 37.9547C39.6952 37.4286 40.2079 36.4074 40.4427 36.0128C40.5367 35.8549 40.6011 35.7312 40.5859 35.738C40.5707 35.7449 40.4141 35.8205 40.238 35.906C40.0619 35.9915 39.7716 36.1096 39.5928 36.1682C39.2602 36.2774 38.7445 36.3787 38.7078 36.3421C38.6746 36.3092 39.0505 35.8609 39.2979 35.6382C39.5507 35.4106 39.7951 35.2435 40.7979 34.6123C44.596 32.2217 46.92 30.0489 48.0197 27.8605C48.5457 26.8138 48.8422 25.7522 48.9909 24.3838C49.0564 23.781 49.0561 21.3132 48.9905 20.864C48.8483 19.8905 48.6053 19.0375 48.2303 18.1958C47.6796 16.96 46.9603 15.9633 45.8374 14.8803C45.3617 14.4216 45.1856 14.2777 45.1856 14.3477ZM44.1891 14.4092C44.0716 14.4728 43.6756 14.5759 43.5487 14.5759C43.4956 14.5759 43.4526 14.6189 43.4526 14.672L43.4523 16.235C43.452 17.7511 43.4208 19.5288 43.3578 21.6303C43.3346 22.4041 43.3362 22.4323 43.4024 22.4056C43.8762 22.2145 43.9892 22.1908 44.4425 22.1874C44.6923 22.1855 44.8917 21.9786 44.8843 21.7289L44.874 21.3773C44.8335 19.9953 44.7799 18.5278 44.7609 18.2791C44.751 18.148 44.7174 17.7025 44.6862 17.2891C44.5896 16.0056 44.3844 14.355 44.3216 14.3574C44.3 14.3582 44.2403 14.3815 44.1891 14.4092ZM27.3398 18.9024C25.5496 19.0487 24.282 19.3983 23.6283 19.926C23.3477 20.1525 23.2759 20.2903 23.2926 20.5707C23.3058 20.7925 23.4278 21.1055 23.5682 21.2777C23.6343 21.3589 23.6411 21.3598 23.7966 21.3052C24.1162 21.193 24.5685 21.2487 24.9984 21.4532C25.1404 21.5207 25.5718 21.7846 25.9571 22.0396C26.9305 22.6838 27.3247 22.8702 28.0093 23.0097C28.7802 23.1668 29.1773 23.094 30.566 22.5409C31.5993 22.1294 32.2526 21.9478 33.0298 21.8561C33.7777 21.7679 34.1583 21.7537 34.6219 21.797C35.3797 21.8678 35.8758 22.0213 36.2969 22.3154C36.7278 22.6163 36.9734 23.01 37.0748 23.5624C37.2442 24.4854 36.5658 25.8729 35.6138 26.5506C35.0942 26.9204 34.3385 27.1232 32.8705 27.2867C32.0435 27.3788 29.0652 27.3791 27.9113 27.2872C26.029 27.1373 24.0857 26.8373 23.6818 26.6342C23.6065 26.5964 23.5225 26.5654 23.495 26.5654C23.3528 26.5654 23.2198 27.1774 23.2806 27.5524C23.3534 28.0021 23.6442 28.3177 24.261 28.6163C25.0324 28.9899 25.9952 29.2065 27.561 29.3586C28.2183 29.4225 30.9894 29.4231 31.7459 29.3595C34.5152 29.1267 36.6132 28.6227 38.4433 27.7507C38.7244 27.6168 38.9543 27.4916 38.9543 27.4724C38.9543 27.4533 38.93 27.3445 38.9004 27.2307C38.6348 26.2111 38.6828 24.4709 39.0111 23.2106C39.1165 22.8058 39.3013 22.2796 39.4199 22.0466C39.4709 21.9465 39.4412 21.8242 39.3501 21.7585L39.2666 21.6983C38.2597 20.9726 36.6523 20.1977 35.3409 19.8057C33.9339 19.3852 32.4792 19.1162 30.7381 18.9546C30.0511 18.8908 27.888 18.8576 27.3398 18.9024ZM42.3281 20.3132C41.0269 20.5529 40.1068 21.6458 39.7165 23.4151C39.5564 24.1412 39.5267 24.447 39.5262 25.3738C39.5259 26.1461 39.5361 26.3043 39.61 26.6667C39.7975 27.5869 40.1912 28.4142 40.7168 28.9927C40.7864 29.0693 40.8555 29.132 40.8704 29.132C40.8981 29.132 41.3552 28.6276 41.9914 27.8951L42.1954 27.6602C42.2845 27.5576 42.2878 27.4061 42.2032 27.2997C41.9955 27.0383 41.8513 26.7745 41.7319 26.4371C41.631 26.1524 41.628 26.1224 41.6293 25.4105C41.6305 24.7152 41.6359 24.66 41.7326 24.3472C41.8899 23.8385 42.1314 23.4251 42.4842 23.0606C42.5548 22.9878 42.5955 22.8912 42.5985 22.7898L42.6183 22.1073C42.6318 21.6453 42.6531 21.0404 42.6657 20.7631C42.6847 20.3453 42.6799 20.2596 42.6374 20.2623C42.6092 20.2641 42.47 20.287 42.3281 20.3132ZM23.9567 22.1624C23.6661 22.2978 23.5167 22.5222 23.3857 23.02C23.2278 23.6203 23.3038 24.9694 23.5188 25.3828C23.5848 25.5099 23.7411 25.6686 23.9107 25.7808C24.1402 25.9325 25.7329 26.2033 27.1001 26.3231C28.1841 26.4181 28.2567 26.4223 29.3308 26.4535C31.7196 26.5229 33.8302 26.3499 34.7155 26.0122C35.6726 25.647 36.4643 24.3003 36.2251 23.4441C36.1459 23.1605 35.7796 22.8384 35.3577 22.6814C34.9111 22.5153 34.0996 22.445 33.2761 22.501C32.4178 22.5595 31.8045 22.7121 30.4988 23.1923C29.4054 23.5944 29.1959 23.6451 28.6303 23.6447C27.6933 23.6441 26.8049 23.3551 25.5554 22.6445C24.608 22.1056 24.2864 22.0087 23.9567 22.1624ZM44.0393 22.9008C43.2454 23.0879 42.5936 23.715 42.3265 24.5488C42.1925 24.9672 42.1583 25.6831 42.2522 26.1029C42.3132 26.3755 42.4968 26.7873 42.6371 26.9661C42.6724 27.011 42.7406 27.0102 42.7747 26.9645L43.1531 26.4586C44.1848 25.0788 44.8512 23.7963 44.8672 23.1595C44.8721 22.9654 44.8699 22.9609 44.7431 22.9148C44.5967 22.8615 44.2365 22.8543 44.0393 22.9008ZM38.77 28.2718C37.1411 29.1095 34.9337 29.704 32.4547 29.9725C31.31 30.0965 30.6128 30.1318 29.294 30.1324C27.902 30.133 27.0933 30.079 26.0898 29.9183C25.7776 29.8683 25.5129 29.8365 25.5017 29.8476C25.4703 29.8788 25.7389 30.3978 25.9662 30.7453C26.5345 31.614 27.173 32.2528 28.067 32.8467C29.1337 33.5555 30.4235 34.0069 32.0607 34.2444C32.5872 34.3208 34.0128 34.388 34.5113 34.3599C35.5382 34.3021 35.5156 34.3061 35.7044 34.1449C36.2081 33.7145 37.982 32.0427 39.062 30.9804L40.0545 30.0042C40.19 29.871 40.1987 29.6554 40.0743 29.5117C39.7486 29.1354 39.5369 28.8255 39.3453 28.4445C39.2515 28.258 39.1542 28.1066 39.1291 28.108C39.1039 28.1094 38.9423 28.1831 38.77 28.2718ZM46.347 31.5518C46.035 31.8699 45.1445 32.6328 44.5507 33.0907C44.3555 33.2413 44.2037 33.3774 44.2135 33.3932C44.2233 33.4089 44.2691 33.4218 44.3154 33.4218C44.4648 33.4218 44.9764 33.5672 45.2106 33.6762C45.8157 33.9577 46.3584 34.4419 46.7991 35.0933C46.8821 35.2161 46.9896 35.3423 47.038 35.3738C47.3719 35.5914 48.1265 36.3883 48.5371 36.957C50.2163 39.2829 51.0056 42.33 50.8979 46.0714C50.8819 46.6259 50.8568 47.2034 50.8419 47.3547C50.8163 47.6155 50.8183 47.6269 50.8805 47.5758C50.9801 47.4941 51.5322 46.648 51.7426 46.2547C52.27 45.2692 52.6757 44.031 52.8588 42.8485C53.3159 39.8959 52.6045 36.0922 51.1831 33.8891C50.8306 33.3427 50.5494 33.0008 50.1283 32.6066C49.2571 31.791 48.2028 31.3346 47.0476 31.2729C46.7897 31.2591 46.5384 31.3568 46.3576 31.5411L46.347 31.5518ZM27.4403 33.8459C26.8736 33.9824 26.3104 34.397 25.8427 35.0219C25.6521 35.2766 25.6448 35.2954 25.5728 35.7185C25.3707 36.9054 25.2754 38.1627 25.2494 39.9869L25.2378 40.7999C25.232 41.2116 25.4633 41.59 25.8323 41.7724C26.4993 42.1021 27.0686 42.4976 27.421 42.876C27.4969 42.9576 27.6335 42.9069 27.6379 42.7956L27.6501 42.4847C27.7449 40.0687 27.8668 38.3343 28.0783 36.3917C28.1586 35.654 28.3263 34.3052 28.357 34.1502C28.3743 34.063 28.3531 34.0409 28.1377 33.9211C27.8757 33.7753 27.7772 33.7647 27.4403 33.8459ZM31.6169 35.0898C31.6169 35.1079 31.9149 35.568 32.442 36.3638L32.5042 36.4577C32.6222 36.6359 32.8702 36.6693 33.0312 36.5288C33.1985 36.3828 33.5889 36.0407 33.8987 35.7684L34.2312 35.4763C34.3137 35.4039 34.2646 35.2679 34.1549 35.2648C33.3587 35.2425 32.341 35.176 32.0409 35.1267C31.6827 35.0677 31.6169 35.062 31.6169 35.0898ZM24.2823 36.4742C23.7145 37.0305 23.2955 37.9252 23.0618 39.08C22.9563 39.6016 22.8584 40.457 22.8999 40.4954C22.9251 40.5186 23.9495 40.9522 24.2642 41.0728C24.2923 41.0835 24.3115 40.7383 24.3283 39.9224C24.3574 38.505 24.4517 37.0771 24.562 36.3826C24.574 36.307 24.5686 36.2451 24.55 36.2451C24.5314 36.2451 24.4109 36.3482 24.2823 36.4742ZM10.6513 37.0823C10.4026 37.2387 10.2792 37.7537 10.3203 38.4633C10.3331 38.6852 10.3925 39.2709 10.4522 39.7649C10.5119 40.259 10.6118 41.1747 10.6742 41.7999C10.8449 43.5116 11.0257 45.1878 11.1528 46.2364C11.2982 47.4368 11.3362 47.7819 11.3564 48.088C11.4713 49.828 11.7809 51.6828 12.094 52.5061C12.5043 53.5852 13.0866 54.1193 14.4532 54.6699C15.036 54.9048 16.8304 55.5647 18.6381 56.2091C21.0141 57.0561 22.9415 57.7711 24.685 58.4521C27.7323 59.6424 29.4884 60.1342 30.1013 59.9689C30.196 59.9433 30.2604 59.8555 30.2562 59.7575L30.2419 59.4239C30.1881 58.1674 29.4679 54.0693 28.446 49.2063C27.5417 44.9021 27.4114 44.4028 27.0437 43.833C26.8824 43.5831 26.3943 43.1323 26.0276 42.8946C25.3196 42.4357 23.4834 41.6583 19.3018 40.0472C18.352 39.6813 15.8667 38.7352 15.4303 38.5734C14.8823 38.3703 13.3326 37.7734 12.5543 37.4656C11.592 37.085 11.4649 37.0468 11.0979 37.0275C10.8122 37.0125 10.7501 37.0201 10.6513 37.0823ZM17.1264 44.4707C16.8697 44.5287 16.8523 44.5384 16.178 44.9959C15.4377 45.4982 15.2801 45.7212 15.2738 46.2751C15.2701 46.6043 15.3384 46.7569 15.8118 47.4773C16.0076 47.7751 16.1677 48.0251 16.1677 48.0328C16.1677 48.0404 15.9138 48.2196 15.6034 48.4308C15.0172 48.8298 14.8284 49.0021 14.6852 49.2688C14.6133 49.4028 14.6007 49.4809 14.6007 49.7929C14.6007 50.1081 14.613 50.1827 14.6883 50.3246C14.8312 50.594 15.3905 51.3939 15.5546 51.5636C15.7573 51.7733 16.0366 51.901 16.3456 51.9251C16.7279 51.955 16.9456 51.8678 17.5806 51.4303C17.878 51.2255 18.1339 51.0582 18.1493 51.0586C18.1646 51.0591 18.3413 51.3065 18.5419 51.6084C19.1149 52.471 19.3546 52.649 19.9471 52.6514C20.3613 52.6531 20.4424 52.6182 21.1301 52.1419C21.9863 51.5489 22.1616 51.2955 22.1335 50.6912C22.116 50.3167 22.0817 50.2466 21.5455 49.487C21.3413 49.1978 21.1885 48.9487 21.2059 48.9333C21.2233 48.9179 21.4981 48.7292 21.8165 48.5139C22.1349 48.2986 22.4463 48.0611 22.5086 47.9861C22.7648 47.6772 22.8494 47.1586 22.7046 46.7846C22.612 46.5453 21.9652 45.6075 21.7748 45.4365C21.5391 45.2247 21.347 45.1445 21.0348 45.1277C20.8585 45.1182 20.6969 45.1317 20.5892 45.165C20.4962 45.1938 20.1437 45.4022 19.8058 45.6283C19.468 45.8544 19.1769 46.0303 19.159 46.0192C19.141 46.0082 18.955 45.7499 18.7456 45.4452C18.5361 45.1405 18.2847 44.8197 18.1869 44.7323C17.911 44.4856 17.5042 44.3853 17.1264 44.4707ZM16.6385 45.4475C16.0357 45.8578 15.9395 45.968 15.9352 46.2536C15.932 46.4666 15.8742 46.3739 16.9544 47.8863C17.9421 49.2691 18.7567 50.4166 19.2686 51.146C19.682 51.7351 19.7649 51.8179 19.9748 51.8518C20.1502 51.8801 20.3658 51.777 20.8862 51.4161C21.3576 51.0892 21.4528 50.9659 21.4321 50.7092C21.4186 50.5409 21.3528 50.4297 20.6413 49.371C20.2144 48.7359 19.6679 47.9273 19.4268 47.574C19.1857 47.2208 18.7312 46.5545 18.4169 46.0935C17.7722 45.1479 17.7043 45.0814 17.3825 45.0814C17.1819 45.0814 17.1619 45.0913 16.6385 45.4475ZM20.7398 45.7683C20.68 45.7911 19.6912 46.4538 19.5914 46.538C19.5364 46.5844 19.5706 46.647 19.9538 47.2011C20.1865 47.5376 20.471 47.9491 20.586 48.1155C20.701 48.2818 20.8117 48.4172 20.832 48.4163C20.9014 48.4132 21.9687 47.6664 22.0388 47.5718C22.1272 47.4526 22.1724 47.2577 22.1487 47.0973C22.1378 47.0236 22.0034 46.7866 21.8175 46.5132C21.4701 46.0021 21.3584 45.8693 21.2117 45.7931C21.113 45.7418 20.8461 45.7278 20.7398 45.7683ZM15.9772 49.0222C15.3485 49.4426 15.2828 49.5186 15.2828 49.8255C15.2828 49.9777 15.3179 50.0455 15.6523 50.5404C15.8556 50.8411 16.0671 51.1177 16.1224 51.155C16.1927 51.2024 16.2898 51.2229 16.4443 51.2229C16.6636 51.2229 16.67 51.2198 17.2094 50.8562C17.5693 50.6137 17.7489 50.4709 17.7402 50.4346C17.7275 50.3815 16.5849 48.638 16.5628 48.638C16.5568 48.638 16.2933 48.8109 15.9772 49.0222ZM29.663 50.7511C29.6635 50.8029 29.9915 52.4607 30.0027 52.4681C30.0084 52.4718 30.0959 52.5049 30.1973 52.5416C31.3324 52.9528 33.0858 53.7124 34.3822 54.3545C35.3729 54.8451 35.846 55.1008 35.7948 55.1178C35.7425 55.1352 35.0289 54.9549 34.15 54.7022C33.2864 54.4541 31.7089 53.9322 30.843 53.6084C30.4907 53.4766 30.1946 53.3767 30.1849 53.3863C30.1752 53.3959 30.2125 53.6555 30.2676 53.9632C30.3228 54.271 30.3932 54.663 30.424 54.8344C30.4589 55.0286 30.5902 55.1918 30.7724 55.2676L30.7812 55.2713C31.5032 55.5715 32.623 56.1855 33.1662 56.579C33.4776 56.8045 33.4645 56.8137 32.9583 56.7251C32.4788 56.6413 31.788 56.4631 31.2021 56.2722C30.718 56.1146 30.6582 56.1024 30.6582 56.1615C30.6582 56.198 30.7074 56.5537 30.7674 56.9519C30.9346 58.0606 31.0259 58.8375 31.0517 59.3711L31.0687 59.7225C31.0725 59.8009 31.1297 59.8665 31.2069 59.8809C31.4117 59.9191 32.0474 59.8308 32.5464 59.6947C33.3744 59.469 34.1058 59.1731 35.53 58.4879C36.2647 58.1344 36.8612 57.8565 38.2169 57.236C40.2733 56.2948 41.2335 55.7737 41.5814 55.4099C41.6575 55.3304 41.7197 55.2452 41.7197 55.2205C41.7197 55.0894 41.5035 54.9898 40.206 54.5228C39.6088 54.3079 38.6971 53.9788 38.18 53.7914C32.4967 51.7323 29.7809 50.7508 29.7272 50.7365C29.6917 50.7271 29.6628 50.7336 29.663 50.7511Z" fill="#FF4A18"/>
</svg>
