<svg width="162" height="34" viewBox="0 0 162 34" fill="none" xmlns="http://www.w3.org/2000/svg">
<path fill-rule="evenodd" clip-rule="evenodd" d="M11.1078 0.0427651C10.9241 0.110482 10.8269 0.174533 10.6944 0.315451C10.4985 0.523687 10.4224 0.722946 10.4224 1.0276C10.4224 1.50458 10.7725 1.90085 11.2719 1.98914C11.6833 2.06189 12.1427 1.81693 12.321 1.42963C12.5533 0.924949 12.348 0.328416 11.8595 0.0893141C11.7188 0.0204009 11.6653 0.00843347 11.4683 0.00175158C11.2894 -0.00433193 11.2115 0.0045188 11.1078 0.0427651ZM22.2426 0.619477C21.9569 0.675625 21.6912 0.887176 21.562 1.16143C21.5025 1.28769 21.4948 1.33394 21.4948 1.56579C21.4948 1.802 21.5016 1.84146 21.5649 1.96967C21.8794 2.60654 22.7844 2.69752 23.2015 2.1342C23.3196 1.97465 23.3837 1.81132 23.3954 1.64041C23.4293 1.14371 23.0914 0.711178 22.5986 0.620573C22.4331 0.590156 22.3923 0.590032 22.2426 0.619477ZM18.4234 1.27131C17.4368 1.33569 16.4166 1.61415 15.4445 2.08438C15.2047 2.20037 14.6844 2.49342 14.6966 2.50559C14.7016 2.51055 14.8454 2.49756 15.0163 2.47674C17.019 2.23253 18.8472 2.57587 20.375 3.48321C20.8916 3.78993 21.3076 4.10979 21.7518 4.54167C21.8665 4.65321 22.0589 4.57192 22.0589 4.41191V3.95301V3.19611C22.0589 3.1183 22.009 3.04926 21.9351 3.02486C21.4152 2.85312 20.9834 2.23575 20.9812 1.66105C20.981 1.5919 20.9351 1.5312 20.8687 1.512L20.8465 1.50557C20.1695 1.30988 19.2277 1.21883 18.4234 1.27131ZM10.7899 2.39217C10.7288 2.65563 10.4357 4.75462 10.4577 4.77165C10.4605 4.77386 10.5474 4.67972 10.6509 4.56246C10.8208 4.36983 11.0204 4.18222 11.3589 3.89697C11.4351 3.83277 11.4848 3.7426 11.4983 3.64389L11.5655 3.15371C11.6141 2.79979 11.6538 2.49965 11.6538 2.48676C11.6538 2.4739 11.5607 2.4627 11.4469 2.46191C11.2665 2.46066 11.1036 2.43002 10.8588 2.35126C10.8141 2.33687 10.801 2.3447 10.7899 2.39217ZM15.54 2.93926C13.5762 3.08858 12.0035 3.80838 10.9688 5.03139C10.747 5.29351 10.5347 5.59741 10.5575 5.62007C10.5656 5.6281 10.7056 5.61713 10.8685 5.59566C11.6158 5.49725 12.7281 5.481 13.647 5.55505C16.1417 5.75605 18.1637 6.37719 19.7231 7.42151C19.8794 7.52623 20.0243 7.62312 20.0449 7.63683C20.074 7.6561 20.0974 7.64191 20.1479 7.5745C20.2619 7.42219 20.6119 7.09019 20.761 6.99295C21.0856 6.78125 21.3901 6.66975 21.7707 6.62323L21.838 6.61501C21.9339 6.6033 22.0087 6.52643 22.0178 6.43025C22.0264 6.33967 22.0336 6.09551 22.0337 5.88769L22.0337 5.82276C22.0338 5.62128 21.9595 5.42687 21.825 5.27685C20.6245 3.93786 19.0332 3.14351 17.1642 2.95028C16.7728 2.90984 15.9964 2.90456 15.54 2.93926ZM23.7137 2.95642C23.7137 2.96801 23.7365 3.1395 23.7644 3.33751C23.9197 4.44024 24.0065 5.62543 24.0647 7.43737C24.1145 8.98832 24.1027 9.15491 23.9072 9.65822C23.1867 11.5133 20.7133 14.2271 15.8409 18.508C15.6409 18.6837 15.4702 18.8396 15.4614 18.8544C15.4526 18.8692 15.416 19.0609 15.3801 19.2803C15.2094 20.3241 15.1209 21.161 14.8501 24.2917C14.7585 25.3508 14.65 26.2349 14.6389 26.012C14.6375 25.9846 14.62 25.8165 14.5999 25.6386C14.5099 24.8419 14.4811 24.0359 14.4946 22.696C14.512 20.9812 14.5925 19.9792 14.792 18.9935C14.826 18.8259 14.7921 18.6516 14.698 18.5088L14.2306 17.8002L13.8316 17.1951C13.6921 16.9836 13.4852 16.8256 13.2445 16.7467C12.8696 16.6238 12.8337 16.6214 12.8326 16.7199C12.8324 16.7378 12.8043 16.9734 12.7702 17.2435C12.5372 19.0871 12.3818 21.5064 12.3811 23.298C12.381 23.7479 12.4277 24.1967 12.5207 24.6369L12.5327 24.6942C12.6163 25.0899 12.7407 25.6829 12.8092 26.012C12.9916 26.8881 13.0266 27.0491 13.0365 27.0569C13.0413 27.0608 13.2484 27.1377 13.4966 27.2278C13.7448 27.318 14.4613 27.5792 15.0887 27.8084C16.7548 28.4171 17.0032 28.5078 17.8467 28.8156C18.2673 28.9691 18.9443 29.2164 19.3511 29.3653C19.7579 29.5142 20.3559 29.733 20.6799 29.8516C21.004 29.9702 21.3249 30.0951 21.393 30.1291C21.7515 30.308 21.9016 30.5135 21.8764 30.7905C21.8476 31.1064 21.5673 31.3736 20.8241 31.7935C20.7586 31.8305 20.705 31.8687 20.7051 31.8784C20.7052 31.9069 21.107 32.1274 21.3272 32.2197C21.8902 32.4559 22.3265 32.484 22.6967 32.3081C22.9734 32.1766 23.1107 32.0294 23.6737 31.2603C24.2899 30.4186 24.5886 30.1079 25.0378 29.8416C25.4509 29.5968 25.9254 29.4476 26.7099 29.3159C28.3642 29.0384 29.4925 28.5378 30.2293 27.7547C30.5705 27.3921 30.7869 27.029 30.9189 26.5979C31.0019 26.3271 31.0278 26.1893 31.0738 25.7752C31.251 24.1785 31.6764 23.023 32.5284 21.8234C33.1006 21.0178 33.2634 20.7334 33.3988 20.3025C33.6571 19.4803 33.6302 18.5862 33.326 17.8819C33.0403 17.2207 32.4173 16.5729 31.5926 16.0795C31.0228 15.7386 30.5773 15.6027 30.0293 15.6027C29.551 15.6027 29.1626 15.7047 28.6405 15.9672C28.4888 16.0435 28.362 16.1085 28.3586 16.1117C28.3553 16.1149 28.4193 16.2457 28.5009 16.4024C28.9702 17.3039 29.3222 18.6152 29.444 19.916C29.4861 20.3657 29.4915 21.249 29.4546 21.6613C29.3006 23.3826 28.648 24.9771 27.6729 26.0146C27.4214 26.2823 27.3525 26.3317 27.2623 26.3092C27.1243 26.2747 27.1193 26.2404 27.161 25.6123C27.3663 22.5191 26.7103 19.9852 25.2851 18.3665C25.0875 18.1421 24.7112 17.7968 24.6641 17.7968C24.6492 17.7968 24.5633 17.8669 24.4732 17.9526C23.9777 18.424 23.461 19.2451 23.0521 20.2107C22.358 21.8502 21.8709 23.8065 21.2941 27.2711C21.2314 27.6482 21.1699 27.9848 21.1576 28.0191C21.1272 28.1036 21.1262 27.3964 21.1557 26.6478C21.2697 23.7536 21.8756 21.0284 22.8131 19.193C23.1718 18.4908 23.4773 18.0568 23.932 17.6037L24.1056 17.4307C24.1806 17.3559 24.1859 17.2361 24.1178 17.1549C23.7025 16.6604 23.1938 16.437 22.6005 16.4885C22.389 16.5068 21.9992 16.6061 21.9367 16.6576C21.8691 16.7133 21.5668 17.0857 21.427 17.2857C20.525 18.5753 19.8361 20.3362 19.3053 22.7085C19.1511 23.3979 19.0274 24.0625 18.7855 25.5009C18.5497 26.9032 18.4973 27.1802 18.4725 27.1546C18.4503 27.1316 18.4036 25.9045 18.4152 25.6505C18.4702 24.45 18.5211 23.9182 18.6636 23.0575C18.9078 21.5813 19.2922 20.2422 19.8255 19.0092C19.9802 18.6515 20.3289 17.9571 20.4885 17.6887C20.5524 17.5813 20.5963 17.4972 20.5859 17.5019C20.5756 17.5065 20.4691 17.5579 20.3494 17.6161C20.2296 17.6742 20.0322 17.7545 19.9106 17.7944C19.6845 17.8686 19.3338 17.9375 19.3088 17.9126C19.2863 17.8903 19.5418 17.5854 19.7101 17.4339C19.882 17.2792 20.0482 17.1655 20.7301 16.7363C23.3128 15.1108 24.8931 13.6333 25.6409 12.1451C25.9986 11.4334 26.2002 10.7115 26.3013 9.78102C26.3458 9.3711 26.3456 7.693 26.301 7.3875C26.2044 6.72555 26.0391 6.1455 25.7841 5.57317C25.4096 4.73278 24.9205 4.05506 24.1569 3.31863C23.8335 3.00671 23.7137 2.90882 23.7137 2.95642ZM23.0361 2.99828C22.9562 3.04151 22.6869 3.1116 22.6006 3.1116C22.5645 3.1116 22.5353 3.14085 22.5353 3.17693L22.535 4.23979C22.5348 5.27074 22.5137 6.47962 22.4708 7.90859C22.455 8.43477 22.4561 8.45394 22.5011 8.43579C22.8234 8.30584 22.9002 8.28973 23.2084 8.28742C23.3783 8.28613 23.5138 8.14544 23.5089 7.97565L23.5018 7.73656C23.4743 6.79678 23.4378 5.79894 23.4249 5.62977C23.4182 5.54064 23.3953 5.23771 23.3741 4.95659C23.3085 4.08384 23.1689 2.9614 23.1262 2.963C23.1115 2.96355 23.0709 2.97943 23.0361 2.99828ZM11.5786 6.05365C10.3612 6.15313 9.49928 6.39083 9.05475 6.74966C8.86392 6.90369 8.8151 6.99744 8.82646 7.18805C8.83546 7.33889 8.9184 7.55173 9.01385 7.66882C9.05886 7.72407 9.06345 7.72464 9.1692 7.68752C9.38653 7.61127 9.69405 7.64915 9.98644 7.78819C10.083 7.83409 10.3763 8.01351 10.6383 8.18691C11.3002 8.625 11.5683 8.75171 12.0338 8.84657C12.558 8.95341 12.8281 8.90389 13.7724 8.52781C14.475 8.248 14.9193 8.12451 15.4478 8.06215C15.9563 8.00214 16.2151 7.99252 16.5304 8.02196C17.0457 8.0701 17.383 8.17447 17.6694 8.37445C17.9624 8.57907 18.1294 8.84682 18.1984 9.2224C18.3136 9.85008 17.8523 10.7935 17.2049 11.2544C16.8515 11.5059 16.3377 11.6438 15.3395 11.755C14.7771 11.8176 12.7518 11.8178 11.9672 11.7553C10.6872 11.6533 9.3658 11.4493 9.0911 11.3112C9.03993 11.2855 8.98279 11.2645 8.96411 11.2645C8.8674 11.2645 8.77699 11.6806 8.81829 11.9356C8.86783 12.2414 9.06555 12.456 9.48499 12.6591C10.0095 12.9131 10.6642 13.0604 11.729 13.1639C12.176 13.2073 14.0603 13.2077 14.5747 13.1644C16.4578 13.0061 17.8845 12.6635 19.129 12.0705C19.3201 11.9794 19.4764 11.8943 19.4764 11.8812C19.4764 11.8683 19.4599 11.7943 19.4398 11.7169C19.2592 11.0236 19.2918 9.84018 19.515 8.98318C19.5868 8.70792 19.7124 8.35015 19.7931 8.1917C19.8277 8.12362 19.8075 8.04045 19.7456 7.99578L19.6888 7.95484C19.0041 7.46138 17.9111 6.93443 17.0193 6.66791C16.0626 6.38196 15.0734 6.19903 13.8894 6.08912C13.4222 6.04577 11.9514 6.02318 11.5786 6.05365ZM21.7706 7.01294C20.8858 7.17598 20.2601 7.91911 19.9947 9.12228C19.8858 9.61601 19.8656 9.82395 19.8653 10.4542C19.8651 10.9794 19.8721 11.0869 19.9223 11.3334C20.0498 11.9591 20.3175 12.5216 20.6749 12.915C20.7222 12.9671 20.7693 13.0098 20.7794 13.0098C20.7982 13.0098 21.1091 12.6667 21.5416 12.1687L21.6804 12.0089C21.741 11.9392 21.7432 11.8361 21.6857 11.7638C21.5444 11.5861 21.4464 11.4067 21.3652 11.1772C21.2966 10.9836 21.2946 10.9632 21.2954 10.4791C21.2962 10.0064 21.2999 9.96883 21.3657 9.75608C21.4726 9.41015 21.6368 9.12908 21.8768 8.88123C21.9248 8.83169 21.9525 8.76599 21.9545 8.69706L21.968 8.23299C21.9771 7.91881 21.9916 7.5075 22.0002 7.31894C22.0131 7.03484 22.0098 6.97649 21.9809 6.97836C21.9618 6.97961 21.8671 6.99517 21.7706 7.01294ZM9.27804 8.27041C9.08042 8.36251 8.97883 8.51512 8.88979 8.85361C8.78241 9.26182 8.83406 10.1792 8.98026 10.4603C9.02519 10.5468 9.13144 10.6546 9.2468 10.7309C9.4028 10.8341 10.4858 11.0183 11.4156 11.0997C12.1527 11.1643 12.2021 11.1672 12.9325 11.1884C14.5568 11.2356 15.9921 11.1179 16.5941 10.8883C17.2449 10.6399 17.7832 9.72422 17.6206 9.142C17.5667 8.94915 17.3176 8.73011 17.0307 8.62338C16.7271 8.51041 16.1752 8.46259 15.6152 8.50071C15.0316 8.54048 14.6146 8.64425 13.7267 8.97074C12.9832 9.24417 12.8407 9.27865 12.4561 9.2784C11.8189 9.27798 11.2148 9.08146 10.3652 8.59825C9.72093 8.23184 9.50227 8.16589 9.27804 8.27041ZM22.9342 8.77253C22.3944 8.89976 21.9512 9.3262 21.7695 9.89321C21.6784 10.1777 21.6551 10.6645 21.719 10.95C21.7604 11.1353 21.8853 11.4153 21.9808 11.537C22.0047 11.5675 22.0511 11.5669 22.0743 11.5359L22.3316 11.1918C23.0332 10.2536 23.4863 9.3815 23.4972 8.94847C23.5005 8.81645 23.499 8.81344 23.4128 8.78207C23.3133 8.74582 23.0683 8.74094 22.9342 8.77253ZM19.3511 12.4248C18.2434 12.9945 16.7424 13.3987 15.0567 13.5813C14.2783 13.6656 13.8042 13.6896 12.9074 13.69C11.9609 13.6905 11.4109 13.6537 10.7286 13.5445C10.5163 13.5105 10.3363 13.4888 10.3287 13.4964C10.3073 13.5176 10.49 13.8705 10.6445 14.1068C11.0309 14.6975 11.4652 15.1319 12.073 15.5358C12.7984 16.0177 13.6755 16.3247 14.7888 16.4862C15.1468 16.5382 16.1162 16.5839 16.4552 16.5648C17.1535 16.5254 17.1381 16.5282 17.2665 16.4185C17.609 16.1259 18.8152 14.989 19.5497 14.2667L20.2246 13.6029C20.3167 13.5123 20.3226 13.3657 20.238 13.268C20.0165 13.0121 19.8726 12.8013 19.7423 12.5423C19.6785 12.4155 19.6124 12.3125 19.5953 12.3134C19.5782 12.3144 19.4683 12.3645 19.3511 12.4248ZM24.5035 14.6553C24.2913 14.8715 23.6858 15.3903 23.282 15.7017C23.1492 15.8041 23.046 15.8967 23.0527 15.9074C23.0593 15.9181 23.0905 15.9269 23.122 15.9269C23.2235 15.9269 23.5715 16.0257 23.7307 16.0998C24.1422 16.2913 24.5112 16.6205 24.8109 17.0634C24.8673 17.1469 24.9404 17.2327 24.9733 17.2542C25.2004 17.4021 25.7135 17.9441 25.9928 18.3308C27.1346 19.9124 27.6713 21.9844 27.5981 24.5285C27.5872 24.9056 27.5701 25.2983 27.56 25.4012C27.5426 25.5785 27.544 25.5863 27.5862 25.5516C27.6539 25.496 28.0294 24.9206 28.1725 24.6532C28.5311 23.9831 28.807 23.1411 28.9315 22.337C29.2423 20.3292 28.7585 17.7427 27.792 16.2446C27.5523 15.873 27.3611 15.6405 27.0747 15.3725C26.4823 14.8179 25.7654 14.5075 24.9799 14.4655C24.8045 14.4562 24.6336 14.5226 24.5107 14.648L24.5035 14.6553ZM11.6469 16.2152C11.2615 16.308 10.8786 16.59 10.5606 17.0149C10.431 17.1881 10.426 17.2009 10.377 17.4886C10.2396 18.2957 10.1748 19.1506 10.1571 20.3911L10.1492 20.944C10.1452 21.2239 10.3025 21.4812 10.5535 21.6052C11.007 21.8294 11.3942 22.0984 11.6338 22.3557C11.6854 22.4111 11.7783 22.3767 11.7812 22.301L11.7895 22.0896C11.8541 20.4467 11.9369 19.2674 12.0807 17.9464C12.1353 17.4447 12.2494 16.5275 12.2703 16.4222C12.282 16.3629 12.2676 16.3478 12.1212 16.2663C11.943 16.1672 11.876 16.16 11.6469 16.2152ZM14.487 17.061C14.487 17.0733 14.6896 17.3862 15.0481 17.9274L15.0904 17.9912C15.1706 18.1124 15.3392 18.1351 15.4487 18.0396C15.5625 17.9403 15.8279 17.7077 16.0387 17.5225L16.2647 17.3239C16.3208 17.2746 16.2874 17.1822 16.2128 17.1801C15.6714 17.1649 14.9794 17.1197 14.7753 17.0861C14.5318 17.046 14.487 17.0422 14.487 17.061ZM9.49943 18.0025C9.11339 18.3808 8.82844 18.9892 8.66955 19.7744C8.59777 20.1291 8.53123 20.7108 8.55944 20.7368C8.57659 20.7527 9.27318 21.0475 9.48717 21.1295C9.50628 21.1368 9.51934 20.902 9.53075 20.3472C9.55056 19.3834 9.61467 18.4124 9.68966 17.9401C9.69783 17.8887 9.69415 17.8467 9.68149 17.8467C9.66882 17.8467 9.58691 17.9168 9.49943 18.0025ZM0.230361 18.416C0.0612712 18.5223 -0.0226466 18.8725 0.00528431 19.3551C0.0140096 19.5059 0.0543766 19.9042 0.0949942 20.2402C0.135612 20.5761 0.203533 21.1988 0.245931 21.6239C0.362042 22.7879 0.484999 23.9277 0.571399 24.6407C0.670286 25.457 0.69611 25.6917 0.70985 25.8998C0.787976 27.083 0.998536 28.3443 1.21143 28.9042C1.49044 29.638 1.88638 30.0011 2.81567 30.3756C3.212 30.5352 4.43216 30.984 5.66142 31.4222C7.27712 31.9982 8.58774 32.4843 9.77333 32.9474C11.8455 33.7568 13.0396 34.0913 13.4564 33.9788C13.5208 33.9615 13.5646 33.9017 13.5617 33.8351L13.552 33.6082C13.5154 32.7538 13.0256 29.9671 12.3308 26.6603C11.7158 23.7334 11.6272 23.3939 11.3772 23.0064C11.2675 22.8365 10.9356 22.5299 10.6863 22.3683C10.2049 22.0563 8.95621 21.5276 6.11272 20.4321C5.46688 20.1833 3.77683 19.5399 3.4801 19.4299C3.10744 19.2918 2.05364 18.8859 1.52443 18.6766C0.870039 18.4178 0.783664 18.3918 0.534066 18.3787C0.339778 18.3685 0.297556 18.3737 0.230361 18.416ZM4.63344 23.4401C4.45891 23.4795 4.44707 23.4861 3.98857 23.7972C3.48516 24.1388 3.37795 24.2904 3.37369 24.6671C3.37116 24.891 3.41759 24.9947 3.73952 25.4845C3.87264 25.6871 3.98155 25.8571 3.98155 25.8623C3.98155 25.8675 3.80885 25.9893 3.59779 26.133C3.19921 26.4043 3.07084 26.5214 2.97346 26.7028C2.92451 26.7939 2.91597 26.847 2.91597 27.0592C2.91597 27.2735 2.92431 27.3243 2.97551 27.4207C3.07274 27.6039 3.45307 28.1478 3.56464 28.2633C3.70247 28.4059 3.89242 28.4927 4.1025 28.5091C4.36248 28.5294 4.51051 28.4701 4.94233 28.1726C5.14457 28.0333 5.31857 27.9196 5.32903 27.9199C5.33946 27.9202 5.45958 28.0884 5.59598 28.2937C5.98561 28.8803 6.14863 29.0013 6.5515 29.003C6.83316 29.0041 6.88835 28.9804 7.35595 28.6565C7.93819 28.2533 8.05741 28.0809 8.03825 27.67C8.02637 27.4154 8.00307 27.3677 7.63844 26.8512C7.49962 26.6545 7.39569 26.4851 7.40753 26.4746C7.41936 26.4642 7.6062 26.3359 7.8227 26.1895C8.03923 26.0431 8.25102 25.8815 8.29334 25.8305C8.46757 25.6205 8.52511 25.2679 8.42665 25.0135C8.36364 24.8508 7.92385 24.2131 7.7944 24.0968C7.63408 23.9528 7.50343 23.8983 7.29114 23.8868C7.17127 23.8803 7.06142 23.8896 6.98813 23.9122C6.9249 23.9318 6.68521 24.0735 6.45547 24.2272C6.22575 24.381 6.0278 24.5006 6.01562 24.4931C6.00341 24.4856 5.87689 24.3099 5.73448 24.1027C5.59207 23.8956 5.42112 23.6774 5.3546 23.6179C5.16701 23.4502 4.89038 23.382 4.63344 23.4401ZM4.3017 24.1043C3.89179 24.3833 3.82638 24.4583 3.82344 24.6525C3.82124 24.7973 3.78192 24.7343 4.51648 25.7627C5.1881 26.703 5.74207 27.4833 6.09016 27.9793C6.37125 28.3799 6.42764 28.4362 6.57037 28.4592C6.68962 28.4785 6.83627 28.4084 7.19014 28.1629C7.51065 27.9406 7.57541 27.8568 7.56134 27.6823C7.55212 27.5678 7.50741 27.4922 7.02356 26.7723C6.73332 26.3404 6.3617 25.7905 6.19772 25.5503C6.03377 25.3101 5.72473 24.8571 5.51098 24.5436C5.07261 23.9005 5.02643 23.8554 4.80759 23.8554C4.67122 23.8554 4.65758 23.8621 4.3017 24.1043ZM7.09056 24.3224C7.04991 24.3379 6.37754 24.7886 6.30962 24.8459C6.27224 24.8774 6.2955 24.92 6.55608 25.2967C6.71434 25.5256 6.9078 25.8054 6.986 25.9185C7.06418 26.0316 7.13945 26.1237 7.15324 26.1231C7.20048 26.121 7.9262 25.6132 7.97392 25.5488C8.03401 25.4678 8.0647 25.3353 8.04861 25.2262C8.04121 25.1761 7.94984 25.0149 7.82343 24.8289C7.58717 24.4814 7.5112 24.3911 7.41149 24.3393C7.34432 24.3044 7.16282 24.2949 7.09056 24.3224ZM3.852 26.5351C3.42446 26.821 3.37981 26.8727 3.37981 27.0813C3.37981 27.1848 3.40365 27.2309 3.63109 27.5675C3.76929 27.7719 3.91313 27.96 3.95076 27.9854C3.99853 28.0176 4.06457 28.0315 4.1696 28.0315C4.31878 28.0315 4.32312 28.0294 4.6899 27.7822C4.93461 27.6173 5.05677 27.5202 5.05085 27.4955C5.0422 27.4594 4.26525 26.2738 4.25023 26.2738C4.24614 26.2738 4.06695 26.3914 3.852 26.5351ZM13.1584 27.7107C13.1587 27.746 13.3817 28.8733 13.3894 28.8783C13.3932 28.8808 13.4527 28.9033 13.5217 28.9283C14.2935 29.2079 15.4858 29.7244 16.3674 30.161C17.0411 30.4947 17.3628 30.6686 17.3279 30.6801C17.2924 30.6919 16.8072 30.5693 16.2095 30.3975C15.6222 30.2288 14.5496 29.8739 13.9608 29.6537C13.7212 29.5641 13.5198 29.4961 13.5132 29.5027C13.5067 29.5092 13.532 29.6857 13.5695 29.895C13.607 30.1042 13.6549 30.3708 13.6758 30.4874C13.6996 30.6195 13.7888 30.7305 13.9127 30.782L13.9187 30.7845C14.4097 30.9887 15.1711 31.4061 15.5405 31.6737C15.7523 31.8271 15.7433 31.8333 15.3991 31.7731C15.0731 31.7161 14.6033 31.5949 14.2049 31.4651C13.8758 31.3579 13.8351 31.3496 13.8351 31.3898C13.8351 31.4147 13.8685 31.6565 13.9093 31.9273C14.023 32.6812 14.0851 33.2095 14.1026 33.5723L14.1142 33.8113C14.1168 33.8646 14.1557 33.9092 14.2082 33.919C14.3475 33.945 14.7797 33.8849 15.1191 33.7924C15.6821 33.6389 16.1794 33.4377 17.1479 32.9718C17.6475 32.7314 18.0531 32.5424 18.975 32.1205C20.3734 31.4805 21.0263 31.1261 21.2629 30.8787C21.3146 30.8246 21.3569 30.7667 21.3569 30.7499C21.3569 30.6608 21.2099 30.5931 20.3275 30.2755C19.9215 30.1294 19.3016 29.9056 18.9499 29.7782C15.0853 28.378 13.2385 27.7105 13.202 27.7008C13.1779 27.6944 13.1582 27.6989 13.1584 27.7107Z" fill="white"/>
<path d="M49.7827 24C48.0761 24 46.8494 23.6267 46.1027 22.88C45.3694 22.1333 45.0027 21.0533 45.0027 19.64V10H47.8227V19.64C47.8227 20.3733 47.9827 20.92 48.3027 21.28C48.6227 21.6267 49.1161 21.8 49.7827 21.8H54.2627V24H49.7827ZM60.6045 24C58.8311 24 57.5578 23.6267 56.7845 22.88C56.0111 22.1333 55.6245 21.0533 55.6245 19.64V14.36C55.6245 12.9467 56.0111 11.8667 56.7845 11.12C57.5578 10.3733 58.8311 10 60.6045 10H65.2845V12.2H60.6045C59.8711 12.2 59.3245 12.3733 58.9645 12.72C58.6178 13.0667 58.4445 13.6133 58.4445 14.36V15.9H64.4045V18.1H58.4445V19.64C58.4445 20.3733 58.6178 20.92 58.9645 21.28C59.3245 21.6267 59.8711 21.8 60.6045 21.8H65.3245V24H60.6045ZM67.7293 10H72.9293C74.5026 10 75.7426 10.2267 76.6493 10.68C77.5693 11.1333 78.2293 11.8667 78.6293 12.88C79.0426 13.88 79.2493 15.2533 79.2493 17C79.2493 18.7467 79.0426 20.1267 78.6293 21.14C78.2293 22.14 77.5693 22.8667 76.6493 23.32C75.7426 23.7733 74.5026 24 72.9293 24H67.7293V10ZM72.9293 21.8C73.8093 21.8 74.5026 21.6467 75.0093 21.34C75.516 21.0333 75.876 20.5333 76.0893 19.84C76.316 19.1467 76.4293 18.2 76.4293 17C76.4293 15.8 76.316 14.8533 76.0893 14.16C75.876 13.4667 75.516 12.9667 75.0093 12.66C74.5026 12.3533 73.8093 12.2 72.9293 12.2H70.5493V21.8H72.9293ZM86.288 24C84.5147 24 83.2414 23.6267 82.468 22.88C81.6947 22.1333 81.308 21.0533 81.308 19.64V14.36C81.308 12.9467 81.6947 11.8667 82.468 11.12C83.2414 10.3733 84.5147 10 86.288 10H90.968V12.2H86.288C85.5547 12.2 85.008 12.3733 84.648 12.72C84.3014 13.0667 84.128 13.6133 84.128 14.36V15.9H90.088V18.1H84.128V19.64C84.128 20.3733 84.3014 20.92 84.648 21.28C85.008 21.6267 85.5547 21.8 86.288 21.8H91.008V24H86.288ZM104.753 24H101.773L100.853 20.9C100.666 20.26 100.48 19.7667 100.293 19.42C100.106 19.06 99.8529 18.7867 99.5329 18.6C99.2129 18.4133 98.7862 18.32 98.2529 18.32H96.2329V24H93.4129V10H99.0729C100.78 10 102.04 10.34 102.853 11.02C103.666 11.6867 104.073 12.7333 104.073 14.16C104.073 15.08 103.826 15.82 103.333 16.38C102.853 16.94 102.186 17.3 101.333 17.46C102.013 17.6867 102.526 18.08 102.873 18.64C103.22 19.2 103.54 19.96 103.833 20.92L104.753 24ZM99.1529 16.12C99.7662 16.12 100.266 15.96 100.653 15.64C101.053 15.3067 101.253 14.8133 101.253 14.16C101.253 13.5067 101.053 13.02 100.653 12.7C100.266 12.3667 99.7662 12.2 99.1529 12.2H96.2329V16.12H99.1529Z" fill="white"/>
<path d="M113.723 10H118.923C120.497 10 121.737 10.2267 122.643 10.68C123.563 11.1333 124.223 11.8667 124.623 12.88C125.037 13.88 125.243 15.2533 125.243 17C125.243 18.7467 125.037 20.1267 124.623 21.14C124.223 22.14 123.563 22.8667 122.643 23.32C121.737 23.7733 120.497 24 118.923 24H113.723V10ZM118.923 21.8C119.803 21.8 120.497 21.6467 121.003 21.34C121.51 21.0333 121.87 20.5333 122.083 19.84C122.31 19.1467 122.423 18.2 122.423 17C122.423 15.8 122.31 14.8533 122.083 14.16C121.87 13.4667 121.51 12.9667 121.003 12.66C120.497 12.3533 119.803 12.2 118.923 12.2H116.543V21.8H118.923ZM135.081 20.74H129.601L128.661 24H125.841L129.261 12.84C129.501 12.04 129.755 11.42 130.021 10.98C130.288 10.54 130.601 10.2267 130.961 10.04C131.335 9.85333 131.795 9.76 132.341 9.76C132.888 9.76 133.341 9.85333 133.701 10.04C134.061 10.2267 134.375 10.54 134.641 10.98C134.921 11.42 135.181 12.04 135.421 12.84L138.841 24H136.021L135.081 20.74ZM134.461 18.64L132.781 12.88C132.688 12.5333 132.541 12.36 132.341 12.36C132.141 12.36 131.995 12.5333 131.901 12.88L130.221 18.64H134.461ZM141.878 12.2H137.658V10H148.918V12.2H144.698V24H141.878V12.2ZM156.956 20.74H151.476L150.536 24H147.716L151.136 12.84C151.376 12.04 151.63 11.42 151.896 10.98C152.163 10.54 152.476 10.2267 152.836 10.04C153.21 9.85333 153.67 9.76 154.216 9.76C154.763 9.76 155.216 9.85333 155.576 10.04C155.936 10.2267 156.25 10.54 156.516 10.98C156.796 11.42 157.056 12.04 157.296 12.84L160.716 24H157.896L156.956 20.74ZM156.336 18.64L154.656 12.88C154.563 12.5333 154.416 12.36 154.216 12.36C154.016 12.36 153.87 12.5333 153.776 12.88L152.096 18.64H156.336Z" fill="white"/>
</svg>
