<svg width="163" height="36" viewBox="0 0 163 36" fill="none" xmlns="http://www.w3.org/2000/svg">
<path fill-rule="evenodd" clip-rule="evenodd" d="M11.6532 0.544023C11.4641 0.613731 11.3641 0.679667 11.2277 0.824729C11.0261 1.03909 10.9477 1.24421 10.9477 1.55782C10.9477 2.04883 11.3081 2.45676 11.8221 2.54764C12.2457 2.62254 12.7186 2.37037 12.9021 1.97168C13.1413 1.45215 12.9299 0.838075 12.4271 0.591941C12.2822 0.521001 12.2272 0.508682 12.0243 0.501803C11.8402 0.495541 11.76 0.504652 11.6532 0.544023ZM23.1155 1.1377C22.8215 1.1955 22.548 1.41327 22.4149 1.69559C22.3537 1.82556 22.3457 1.87317 22.3457 2.11184C22.3457 2.355 22.3528 2.39562 22.4179 2.5276C22.7417 3.1832 23.6733 3.27686 24.1026 2.69697C24.2242 2.53273 24.2902 2.3646 24.3023 2.18866C24.3372 1.67734 23.9893 1.23209 23.482 1.13883C23.3116 1.10751 23.2697 1.10739 23.1155 1.1377ZM19.184 1.8087C18.1684 1.87497 17.1182 2.16163 16.1175 2.64569C15.8707 2.76508 15.335 3.06676 15.3476 3.07928C15.3528 3.08439 15.5008 3.07102 15.6767 3.04959C17.7383 2.79819 19.6202 3.15163 21.1931 4.08566C21.7248 4.4014 22.153 4.73067 22.6103 5.17525C22.7284 5.29007 22.9265 5.20639 22.9265 5.04167V4.56928V3.79011C22.9265 3.71001 22.8751 3.63895 22.799 3.61382C22.2638 3.43704 21.8193 2.8015 21.8171 2.20991C21.8168 2.13873 21.7696 2.07624 21.7013 2.05647L21.6784 2.04986C20.9815 1.84841 20.012 1.75467 19.184 1.8087ZM11.326 2.96253C11.2631 3.23374 10.9614 5.39446 10.984 5.41199C10.9869 5.41427 11.0764 5.31736 11.1829 5.19665C11.3578 4.99836 11.5633 4.80522 11.9118 4.51158C11.9902 4.4455 12.0413 4.35267 12.0553 4.25107L12.1245 3.74646C12.1744 3.38214 12.2153 3.07317 12.2153 3.0599C12.2153 3.04666 12.1195 3.03514 12.0023 3.03432C11.8166 3.03303 11.649 3.00149 11.397 2.92041C11.351 2.9056 11.3374 2.91366 11.326 2.96253ZM16.2158 3.52571C14.1942 3.67942 12.5753 4.42039 11.5102 5.67937C11.2819 5.9492 11.0633 6.26204 11.0868 6.28537C11.0951 6.29363 11.2392 6.28234 11.407 6.26024C12.1762 6.15894 13.3212 6.1422 14.2672 6.21843C16.8352 6.42535 18.9167 7.06476 20.5219 8.13979C20.6829 8.24759 20.832 8.34732 20.8532 8.36144C20.8831 8.38128 20.9072 8.36668 20.9592 8.29728C21.0766 8.14048 21.4369 7.79872 21.5904 7.69862C21.9245 7.4807 22.238 7.36592 22.6298 7.31803L22.699 7.30957C22.7977 7.29751 22.8748 7.21838 22.8842 7.11937C22.893 7.02613 22.9004 6.77479 22.9005 6.56086L22.9005 6.49402C22.9006 6.28661 22.8241 6.08648 22.6856 5.93205C21.4498 4.55368 19.8117 3.73597 17.8878 3.53706C17.4849 3.49543 16.6856 3.48999 16.2158 3.52571ZM24.6299 3.54337C24.6299 3.5553 24.6534 3.73183 24.6821 3.93567C24.8419 5.07084 24.9313 6.29088 24.9912 8.15612C25.0425 9.75268 25.0303 9.92418 24.8291 10.4423C24.0874 12.352 21.5412 15.1455 16.5256 19.5524C16.3197 19.7332 16.1439 19.8937 16.1348 19.9089C16.1258 19.9242 16.0882 20.1215 16.0512 20.3473C15.8755 21.4219 15.7843 22.2833 15.5056 25.5061C15.4113 26.5964 15.2996 27.5066 15.2882 27.2771C15.2868 27.2488 15.2687 27.0759 15.248 26.8927C15.1554 26.0726 15.1257 25.2429 15.1397 23.8635C15.1576 22.0983 15.2404 21.0668 15.4458 20.0522C15.4808 19.8796 15.446 19.7002 15.349 19.5532L14.8679 18.8237L14.4572 18.2008C14.3136 17.9832 14.1006 17.8205 13.8528 17.7393C13.4669 17.6127 13.43 17.6103 13.4287 17.7117C13.4285 17.7301 13.3996 17.9727 13.3645 18.2506C13.1247 20.1485 12.9647 22.6389 12.964 24.4832C12.9639 24.9464 13.012 25.4083 13.1077 25.8615L13.1201 25.9205C13.2061 26.3278 13.3341 26.9383 13.4047 27.2771C13.5924 28.1789 13.6285 28.3446 13.6386 28.3527C13.6436 28.3567 13.8568 28.4359 14.1123 28.5286C14.3678 28.6214 15.1054 28.8904 15.7513 29.1263C17.4664 29.7529 17.722 29.8462 18.5904 30.1631C19.0233 30.3211 19.7202 30.5757 20.139 30.729C20.5577 30.8822 21.1733 31.1075 21.5069 31.2296C21.8405 31.3517 22.1708 31.4802 22.2409 31.5152C22.61 31.6995 22.7645 31.9109 22.7386 32.1961C22.7089 32.5213 22.4203 32.7963 21.6553 33.2286C21.5879 33.2667 21.5327 33.306 21.5328 33.316C21.5329 33.3454 21.9466 33.5723 22.1733 33.6674C22.7528 33.9104 23.2019 33.9394 23.583 33.7584C23.8679 33.623 24.0092 33.4714 24.5888 32.6797C25.223 31.8133 25.5305 31.4935 25.993 31.2193C26.4182 30.9672 26.9067 30.8137 27.7142 30.6782C29.4171 30.3924 30.5787 29.8772 31.3372 29.071C31.6883 28.6977 31.9112 28.324 32.0471 27.8802C32.1325 27.6014 32.1592 27.4595 32.2065 27.0333C32.3889 25.3896 32.8268 24.2001 33.7039 22.9652C34.2929 22.136 34.4605 21.8432 34.5998 21.3996C34.8658 20.5533 34.8381 19.6328 34.5249 18.9079C34.2309 18.2272 33.5895 17.5603 32.7406 17.0524C32.1539 16.7015 31.6954 16.5616 31.1313 16.5616C30.6389 16.5616 30.2391 16.6666 29.7016 16.9368C29.5454 17.0154 29.4149 17.0823 29.4115 17.0856C29.4081 17.0889 29.4739 17.2236 29.5579 17.3848C30.041 18.3129 30.4034 19.6627 30.5288 21.0018C30.5721 21.4647 30.5776 22.3739 30.5396 22.7984C30.3811 24.5703 29.7093 26.2118 28.7056 27.2797C28.4466 27.5553 28.3757 27.6062 28.2829 27.583C28.1408 27.5475 28.1356 27.5122 28.1786 26.8656C28.39 23.6815 27.7147 21.073 26.2475 19.4067C26.0442 19.1757 25.6567 18.8202 25.6083 18.8202C25.593 18.8202 25.5045 18.8924 25.4118 18.9806C24.9017 19.4658 24.3698 20.3111 23.9489 21.3051C23.2343 22.9929 22.7329 25.0067 22.1392 28.5732C22.0746 28.9614 22.0113 29.3079 21.9986 29.3432C21.9673 29.4302 21.9663 28.7021 21.9967 27.9316C22.1141 24.9522 22.7377 22.1469 23.7028 20.2575C24.072 19.5346 24.3866 19.0878 24.8546 18.6215L25.0333 18.4434C25.1106 18.3664 25.116 18.243 25.0459 18.1595C24.6184 17.6504 24.0947 17.4204 23.484 17.4734C23.2663 17.4923 22.865 17.5946 22.8006 17.6475C22.731 17.7048 22.4199 18.0882 22.2759 18.2941C21.3474 19.6217 20.6382 21.4344 20.0919 23.8764C19.9331 24.5861 19.8057 25.2702 19.5568 26.7509C19.3141 28.1944 19.2601 28.4796 19.2346 28.4533C19.2117 28.4296 19.1636 27.1664 19.1756 26.9049C19.2322 25.6691 19.2846 25.1217 19.4313 24.2357C19.6827 22.7161 20.0783 21.3376 20.6273 20.0683C20.7866 19.7 21.1456 18.9852 21.3099 18.709C21.3757 18.5984 21.4208 18.5118 21.4101 18.5166C21.3995 18.5214 21.2899 18.5743 21.1666 18.6342C21.0434 18.6941 20.8401 18.7767 20.7149 18.8178C20.4822 18.8942 20.1212 18.9651 20.0954 18.9395C20.0723 18.9164 20.3353 18.6027 20.5085 18.4467C20.6855 18.2874 20.8566 18.1704 21.5585 17.7286C24.2172 16.0552 25.844 14.5343 26.6138 13.0023C26.982 12.2696 27.1896 11.5265 27.2936 10.5687C27.3395 10.1467 27.3393 8.41927 27.2933 8.10478C27.1938 7.42336 27.0237 6.82625 26.7612 6.23709C26.3757 5.37198 25.8722 4.67433 25.0862 3.91624C24.7532 3.59514 24.6299 3.49437 24.6299 3.54337ZM23.9324 3.58646C23.8501 3.63097 23.5729 3.70311 23.4841 3.70311C23.447 3.70311 23.4168 3.73322 23.4168 3.77037L23.4166 4.86449C23.4164 5.92576 23.3946 7.17019 23.3504 8.6412C23.3342 9.18285 23.3353 9.20258 23.3817 9.1839C23.7134 9.05013 23.7925 9.03355 24.1097 9.03116C24.2846 9.02984 24.4242 8.88501 24.419 8.71023L24.4118 8.4641C24.3834 7.49669 24.3459 6.46949 24.3327 6.29535C24.3257 6.2036 24.3022 5.89176 24.2804 5.60238C24.2128 4.70395 24.0691 3.5485 24.0251 3.55015C24.01 3.55071 23.9682 3.56706 23.9324 3.58646ZM12.1379 6.73169C10.8847 6.8341 9.99743 7.0788 9.53981 7.44818C9.34337 7.60674 9.29312 7.70324 9.30481 7.89946C9.31408 8.05474 9.39946 8.27384 9.49772 8.39437C9.54404 8.45125 9.54877 8.45184 9.65764 8.41362C9.88136 8.33513 10.1979 8.37412 10.4989 8.51726C10.5983 8.56451 10.9003 8.7492 11.17 8.9277C11.8513 9.37868 12.1273 9.50911 12.6065 9.60677C13.1461 9.71674 13.4241 9.66577 14.3962 9.27863C15.1195 8.99059 15.5768 8.86346 16.1209 8.79927C16.6444 8.7375 16.9108 8.72759 17.2353 8.7579C17.7658 8.80746 18.113 8.9149 18.4078 9.12076C18.7094 9.3314 18.8814 9.60702 18.9524 9.99365C19.0709 10.6398 18.5961 11.611 17.9296 12.0854C17.5659 12.3443 17.0369 12.4863 16.0094 12.6007C15.4305 12.6652 13.3456 12.6654 12.5379 12.601C11.2203 12.4961 9.86001 12.2861 9.57724 12.1439C9.52456 12.1175 9.46574 12.0958 9.44651 12.0958C9.34696 12.0958 9.25389 12.5242 9.2964 12.7867C9.3474 13.1015 9.55094 13.3224 9.98271 13.5314C10.5227 13.7929 11.1966 13.9445 12.2927 14.051C12.7528 14.0958 14.6926 14.0961 15.2222 14.0516C17.1606 13.8887 18.6292 13.5359 19.9103 12.9255C20.1071 12.8317 20.268 12.7441 20.268 12.7307C20.268 12.7173 20.251 12.6412 20.2303 12.5615C20.0444 11.8478 20.0779 10.6296 20.3078 9.74739C20.3816 9.46404 20.5109 9.09574 20.594 8.93263C20.6296 8.86255 20.6089 8.77693 20.5451 8.73095L20.4866 8.68881C19.7818 8.18083 18.6566 7.63839 17.7386 7.36402C16.7537 7.06966 15.7355 6.88135 14.5167 6.76822C14.0358 6.72358 12.5216 6.70033 12.1379 6.73169ZM22.6296 7.71921C21.7188 7.88704 21.0747 8.65203 20.8016 9.89058C20.6895 10.3988 20.6687 10.6129 20.6684 11.2617C20.6681 11.8023 20.6753 11.913 20.727 12.1667C20.8583 12.8108 21.1338 13.3899 21.5017 13.7949C21.5505 13.8485 21.5989 13.8924 21.6093 13.8924C21.6286 13.8924 21.9487 13.5393 22.394 13.0266L22.5368 12.8621C22.5992 12.7903 22.6015 12.6843 22.5423 12.6098C22.3969 12.4268 22.2959 12.2422 22.2123 12.006C22.1417 11.8067 22.1396 11.7857 22.1405 11.2873C22.1413 10.8007 22.1451 10.762 22.2128 10.543C22.3229 10.1869 22.492 9.89759 22.739 9.64244C22.7883 9.59144 22.8169 9.52382 22.8189 9.45286L22.8328 8.97513C22.8422 8.65172 22.8572 8.22831 22.866 8.0342C22.8793 7.74174 22.8759 7.68168 22.8462 7.68361C22.8265 7.68489 22.729 7.70091 22.6296 7.71921ZM9.76968 9.01366C9.56624 9.10847 9.46166 9.26557 9.37001 9.614C9.25946 10.0342 9.31263 10.9786 9.46313 11.268C9.50938 11.357 9.61876 11.468 9.73752 11.5465C9.89811 11.6527 11.013 11.8423 11.9701 11.9262C12.7289 11.9927 12.7797 11.9956 13.5316 12.0175C15.2037 12.0661 16.6812 11.9449 17.3009 11.7085C17.9708 11.4529 18.525 10.5102 18.3576 9.91088C18.3021 9.71236 18.0457 9.48688 17.7504 9.37701C17.4378 9.26072 16.8697 9.21149 16.2933 9.25073C15.6924 9.29167 15.2631 9.39849 14.3492 9.73458C13.5838 10.0161 13.4372 10.0516 13.0412 10.0513C12.3853 10.0509 11.7634 9.84856 10.8888 9.35114C10.2256 8.97395 10.0005 8.90607 9.76968 9.01366ZM23.8275 9.53054C23.2718 9.66151 22.8155 10.1005 22.6286 10.6842C22.5348 10.9771 22.5108 11.4782 22.5765 11.7721C22.6192 11.9628 22.7478 12.2511 22.846 12.3763C22.8707 12.4077 22.9184 12.4071 22.9423 12.3752L23.2072 12.021C23.9294 11.0552 24.3958 10.1574 24.407 9.71166C24.4105 9.57576 24.4089 9.57266 24.3202 9.54037C24.2177 9.50305 23.9656 9.49802 23.8275 9.53054ZM20.139 13.2902C18.9988 13.8767 17.4536 14.2928 15.7183 14.4807C14.917 14.5675 14.4289 14.5922 13.5058 14.5927C12.5314 14.5931 11.9653 14.5553 11.2629 14.4428C11.0443 14.4078 10.859 14.3855 10.8512 14.3933C10.8292 14.4152 11.0172 14.7785 11.1763 15.0217C11.5741 15.6298 12.0211 16.077 12.6469 16.4927C13.3936 16.9888 14.2965 17.3048 15.4425 17.4711C15.811 17.5246 16.809 17.5716 17.1579 17.552C17.8767 17.5114 17.8609 17.5143 17.9931 17.4014C18.3457 17.1002 19.5874 15.9299 20.3434 15.1863L21.0382 14.503C21.133 14.4097 21.1391 14.2588 21.052 14.1582C20.824 13.8948 20.6758 13.6778 20.5417 13.4112C20.4761 13.2806 20.408 13.1746 20.3904 13.1756C20.3728 13.1766 20.2596 13.2282 20.139 13.2902ZM25.4429 15.5863C25.2245 15.8089 24.6012 16.3429 24.1855 16.6635C24.0488 16.7689 23.9426 16.8642 23.9494 16.8752C23.9563 16.8863 23.9884 16.8953 24.0208 16.8953C24.1253 16.8953 24.4835 16.9971 24.6474 17.0733C25.071 17.2704 25.4509 17.6093 25.7593 18.0653C25.8174 18.1512 25.8927 18.2396 25.9266 18.2617C26.1604 18.414 26.6886 18.9718 26.976 19.3699C28.1514 20.998 28.7039 23.131 28.6285 25.75C28.6174 26.1382 28.5997 26.5424 28.5894 26.6483C28.5714 26.8308 28.5728 26.8388 28.6164 26.8031C28.686 26.7458 29.0725 26.1536 29.2198 25.8783C29.589 25.1884 29.873 24.3217 30.0011 23.4939C30.3211 21.4271 29.8231 18.7645 28.8282 17.2224C28.5814 16.8399 28.3846 16.6005 28.0898 16.3246C27.4799 15.7537 26.742 15.4342 25.9333 15.391C25.7528 15.3814 25.5769 15.4498 25.4503 15.5788L25.4429 15.5863ZM12.2082 17.1921C11.8115 17.2877 11.4173 17.5779 11.0899 18.0153C10.9565 18.1936 10.9514 18.2068 10.901 18.503C10.7595 19.3338 10.6928 20.2139 10.6746 21.4908L10.6665 22.06C10.6624 22.3481 10.8243 22.613 11.0826 22.7407C11.5495 22.9714 11.948 23.2483 12.1947 23.5132C12.2478 23.5703 12.3434 23.5348 12.3465 23.4569L12.355 23.2393C12.4215 21.5481 12.5068 20.334 12.6548 18.9742C12.711 18.4578 12.8284 17.5136 12.8499 17.4052C12.862 17.3441 12.8472 17.3286 12.6964 17.2448C12.513 17.1427 12.444 17.1353 12.2082 17.1921ZM15.1318 18.0628C15.1318 18.0755 15.3404 18.3976 15.7094 18.9547L15.7529 19.0204C15.8356 19.1451 16.0091 19.1685 16.1218 19.0702C16.2389 18.968 16.5122 18.7285 16.7291 18.5379L16.9619 18.3334C17.0196 18.2827 16.9852 18.1875 16.9084 18.1854C16.3511 18.1698 15.6387 18.1232 15.4286 18.0887C15.1779 18.0474 15.1318 18.0434 15.1318 18.0628ZM9.99758 19.032C9.60018 19.4214 9.30685 20.0477 9.14329 20.856C9.0694 21.2211 9.0009 21.8199 9.02993 21.8467C9.04759 21.863 9.76467 22.1665 9.98496 22.251C10.0046 22.2585 10.0181 22.0168 10.0298 21.4457C10.0502 20.4535 10.1162 19.454 10.1934 18.9678C10.2018 18.9149 10.198 18.8716 10.185 18.8716C10.172 18.8716 10.0876 18.9438 9.99758 19.032ZM0.455886 19.4576C0.281823 19.5671 0.195437 19.9276 0.22419 20.4243C0.233172 20.5796 0.274726 20.9896 0.316538 21.3355C0.35835 21.6813 0.42827 22.3223 0.471914 22.7599C0.591441 23.9581 0.718014 25.1314 0.806955 25.8655C0.90875 26.7057 0.935334 26.9473 0.949478 27.1616C1.0299 28.3796 1.24665 29.6779 1.46581 30.2543C1.75302 31.0097 2.16061 31.3835 3.11724 31.769C3.52522 31.9333 4.78126 32.3953 6.04668 32.8464C7.70991 33.4393 9.05907 33.9397 10.2795 34.4165C12.4126 35.2497 13.6419 35.5939 14.0709 35.4782C14.1372 35.4603 14.1823 35.3988 14.1793 35.3302L14.1693 35.0967C14.1317 34.2172 13.6275 31.3485 12.9122 27.9444C12.2792 24.9315 12.1879 24.582 11.9306 24.1831C11.8177 24.0082 11.476 23.6926 11.2194 23.5262C10.7237 23.205 9.43838 22.6608 6.51126 21.533C5.84642 21.2769 4.10667 20.6146 3.8012 20.5014C3.41759 20.3592 2.33279 19.9414 1.78802 19.7259C1.11438 19.4595 1.02546 19.4328 0.768524 19.4193C0.568522 19.4088 0.525057 19.4141 0.455886 19.4576ZM4.98847 24.6295C4.8088 24.6701 4.79662 24.6769 4.32463 24.9971C3.80642 25.3487 3.69605 25.5049 3.69167 25.8926C3.68906 26.123 3.73686 26.2298 4.06826 26.7341C4.20529 26.9426 4.31741 27.1176 4.31741 27.1229C4.31741 27.1283 4.13963 27.2537 3.92236 27.4016C3.51205 27.6808 3.37991 27.8015 3.27966 27.9881C3.22928 28.082 3.22048 28.1366 3.22048 28.355C3.22048 28.5757 3.22907 28.6279 3.28178 28.7272C3.38187 28.9158 3.77338 29.4757 3.88824 29.5945C4.03011 29.7413 4.22565 29.8307 4.44191 29.8476C4.70954 29.8685 4.86192 29.8074 5.30645 29.5012C5.51463 29.3578 5.69375 29.2408 5.70452 29.241C5.71525 29.2414 5.83891 29.4145 5.97932 29.6259C6.3804 30.2297 6.54822 30.3543 6.96294 30.356C7.25289 30.3572 7.3097 30.3327 7.79105 29.9994C8.39041 29.5842 8.51314 29.4068 8.49342 28.9838C8.48119 28.7217 8.45721 28.6726 8.08185 28.1409C7.93894 27.9385 7.83196 27.7641 7.84414 27.7533C7.85633 27.7425 8.04866 27.6104 8.27153 27.4597C8.49443 27.3091 8.71244 27.1428 8.75601 27.0903C8.93537 26.874 8.9946 26.511 8.89324 26.2492C8.82838 26.0817 8.37565 25.4253 8.24239 25.3055C8.07736 25.1573 7.94287 25.1012 7.72433 25.0894C7.60093 25.0827 7.48786 25.0922 7.41242 25.1155C7.34732 25.1356 7.10058 25.2816 6.86408 25.4398C6.62761 25.5981 6.42384 25.7212 6.4113 25.7135C6.39873 25.7057 6.26849 25.5249 6.12189 25.3116C5.97529 25.0984 5.79932 24.8738 5.73084 24.8126C5.53773 24.6399 5.25297 24.5697 4.98847 24.6295ZM4.64697 25.3132C4.22501 25.6005 4.15767 25.6776 4.15465 25.8775C4.15238 26.0266 4.11191 25.9618 4.86806 27.0204C5.55944 27.9883 6.12971 28.7916 6.48803 29.3022C6.77739 29.7146 6.83543 29.7726 6.98237 29.7963C7.10512 29.8161 7.25609 29.7439 7.62037 29.4913C7.9503 29.2624 8.01697 29.1761 8.00249 28.9965C7.99299 28.8786 7.94697 28.8008 7.44889 28.0597C7.15011 27.6151 6.76755 27.0491 6.59876 26.8018C6.42999 26.5545 6.11185 26.0882 5.89182 25.7654C5.44056 25.1035 5.39301 25.057 5.16774 25.057C5.02736 25.057 5.01332 25.0639 4.64697 25.3132ZM7.51785 25.5378C7.47601 25.5538 6.78387 26.0176 6.71395 26.0766C6.67546 26.1091 6.69942 26.1529 6.96766 26.5408C7.13057 26.7763 7.32972 27.0644 7.41022 27.1808C7.4907 27.2973 7.56818 27.3921 7.58238 27.3914C7.631 27.3893 8.37808 26.8665 8.42719 26.8003C8.48906 26.7168 8.52065 26.5804 8.50408 26.4681C8.49647 26.4165 8.40241 26.2506 8.27228 26.0592C8.02907 25.7015 7.95087 25.6085 7.84822 25.5552C7.77908 25.5193 7.59224 25.5094 7.51785 25.5378ZM4.18405 27.8156C3.74393 28.1098 3.69796 28.163 3.69796 28.3778C3.69796 28.4844 3.72251 28.5318 3.95663 28.8783C4.0989 29.0888 4.24697 29.2824 4.28571 29.3085C4.33488 29.3417 4.40286 29.356 4.51098 29.356C4.66455 29.356 4.66902 29.3538 5.04659 29.0993C5.2985 28.9296 5.42424 28.8296 5.41815 28.8042C5.40925 28.767 4.60945 27.5466 4.59399 27.5466C4.58978 27.5466 4.40531 27.6676 4.18405 27.8156ZM13.7641 29.0258C13.7645 29.062 13.9941 30.2225 14.0019 30.2276C14.0059 30.2302 14.0672 30.2534 14.1381 30.2791C14.9327 30.567 16.16 31.0987 17.0675 31.5481C17.761 31.8916 18.0922 32.0706 18.0563 32.0825C18.0197 32.0946 17.5202 31.9684 16.905 31.7916C16.3005 31.6178 15.1962 31.2526 14.5901 31.0259C14.3435 30.9336 14.1362 30.8637 14.1294 30.8704C14.1227 30.8771 14.1487 31.0588 14.1874 31.2743C14.226 31.4897 14.2752 31.7641 14.2968 31.8841C14.3212 32.0201 14.4131 32.1343 14.5407 32.1873L14.5468 32.1899C15.0523 32.4001 15.8361 32.8298 16.2164 33.1053C16.4343 33.2632 16.4251 33.2696 16.0708 33.2076C15.7352 33.1489 15.2516 33.0242 14.8415 32.8906C14.5026 32.7802 14.4608 32.7717 14.4608 32.813C14.4608 32.8386 14.4952 33.0876 14.5372 33.3663C14.6542 34.1424 14.7181 34.6862 14.7362 35.0598L14.7481 35.3057C14.7507 35.3606 14.7908 35.4065 14.8448 35.4166C14.9882 35.4434 15.4332 35.3815 15.7825 35.2863C16.3621 35.1283 16.8741 34.9212 17.871 34.4415C18.3853 34.1941 18.8028 33.9995 19.7518 33.5652C21.1913 32.9064 21.8634 32.5416 22.107 32.2869C22.1602 32.2313 22.2038 32.1716 22.2038 32.1544C22.2038 32.0626 22.0525 31.9929 21.1442 31.666C20.7262 31.5155 20.088 31.2851 19.726 31.154C15.7477 29.7126 13.8466 29.0256 13.8091 29.0155C13.7842 29.0089 13.764 29.0135 13.7641 29.0258Z" fill="#FF4A18"/>
<path d="M50.9898 25C49.2831 25 48.0564 24.6267 47.3098 23.88C46.5764 23.1333 46.2098 22.0533 46.2098 20.64V11H49.0298V20.64C49.0298 21.3733 49.1898 21.92 49.5098 22.28C49.8298 22.6267 50.3231 22.8 50.9898 22.8H55.4698V25H50.9898ZM61.8115 25C60.0382 25 58.7648 24.6267 57.9915 23.88C57.2182 23.1333 56.8315 22.0533 56.8315 20.64V15.36C56.8315 13.9467 57.2182 12.8667 57.9915 12.12C58.7648 11.3733 60.0382 11 61.8115 11H66.4915V13.2H61.8115C61.0782 13.2 60.5315 13.3733 60.1715 13.72C59.8248 14.0667 59.6515 14.6133 59.6515 15.36V16.9H65.6115V19.1H59.6515V20.64C59.6515 21.3733 59.8248 21.92 60.1715 22.28C60.5315 22.6267 61.0782 22.8 61.8115 22.8H66.5315V25H61.8115ZM68.9363 11H74.1363C75.7097 11 76.9497 11.2267 77.8563 11.68C78.7763 12.1333 79.4363 12.8667 79.8363 13.88C80.2497 14.88 80.4563 16.2533 80.4563 18C80.4563 19.7467 80.2497 21.1267 79.8363 22.14C79.4363 23.14 78.7763 23.8667 77.8563 24.32C76.9497 24.7733 75.7097 25 74.1363 25H68.9363V11ZM74.1363 22.8C75.0163 22.8 75.7097 22.6467 76.2163 22.34C76.723 22.0333 77.083 21.5333 77.2963 20.84C77.523 20.1467 77.6363 19.2 77.6363 18C77.6363 16.8 77.523 15.8533 77.2963 15.16C77.083 14.4667 76.723 13.9667 76.2163 13.66C75.7097 13.3533 75.0163 13.2 74.1363 13.2H71.7563V22.8H74.1363ZM87.4951 25C85.7217 25 84.4484 24.6267 83.6751 23.88C82.9017 23.1333 82.5151 22.0533 82.5151 20.64V15.36C82.5151 13.9467 82.9017 12.8667 83.6751 12.12C84.4484 11.3733 85.7217 11 87.4951 11H92.1751V13.2H87.4951C86.7617 13.2 86.2151 13.3733 85.8551 13.72C85.5084 14.0667 85.3351 14.6133 85.3351 15.36V16.9H91.2951V19.1H85.3351V20.64C85.3351 21.3733 85.5084 21.92 85.8551 22.28C86.2151 22.6267 86.7617 22.8 87.4951 22.8H92.2151V25H87.4951ZM105.96 25H102.98L102.06 21.9C101.873 21.26 101.687 20.7667 101.5 20.42C101.313 20.06 101.06 19.7867 100.74 19.6C100.42 19.4133 99.9933 19.32 99.4599 19.32H97.4399V25H94.6199V11H100.28C101.987 11 103.247 11.34 104.06 12.02C104.873 12.6867 105.28 13.7333 105.28 15.16C105.28 16.08 105.033 16.82 104.54 17.38C104.06 17.94 103.393 18.3 102.54 18.46C103.22 18.6867 103.733 19.08 104.08 19.64C104.427 20.2 104.747 20.96 105.04 21.92L105.96 25ZM100.36 17.12C100.973 17.12 101.473 16.96 101.86 16.64C102.26 16.3067 102.46 15.8133 102.46 15.16C102.46 14.5067 102.26 14.02 101.86 13.7C101.473 13.3667 100.973 13.2 100.36 13.2H97.4399V17.12H100.36Z" fill="#0C151F"/>
<path d="M114.93 11H120.13C121.704 11 122.944 11.2267 123.85 11.68C124.77 12.1333 125.43 12.8667 125.83 13.88C126.244 14.88 126.45 16.2533 126.45 18C126.45 19.7467 126.244 21.1267 125.83 22.14C125.43 23.14 124.77 23.8667 123.85 24.32C122.944 24.7733 121.704 25 120.13 25H114.93V11ZM120.13 22.8C121.01 22.8 121.704 22.6467 122.21 22.34C122.717 22.0333 123.077 21.5333 123.29 20.84C123.517 20.1467 123.63 19.2 123.63 18C123.63 16.8 123.517 15.8533 123.29 15.16C123.077 14.4667 122.717 13.9667 122.21 13.66C121.704 13.3533 121.01 13.2 120.13 13.2H117.75V22.8H120.13ZM136.288 21.74H130.808L129.868 25H127.048L130.468 13.84C130.708 13.04 130.962 12.42 131.228 11.98C131.495 11.54 131.808 11.2267 132.168 11.04C132.542 10.8533 133.002 10.76 133.548 10.76C134.095 10.76 134.548 10.8533 134.908 11.04C135.268 11.2267 135.582 11.54 135.848 11.98C136.128 12.42 136.388 13.04 136.628 13.84L140.048 25H137.228L136.288 21.74ZM135.668 19.64L133.988 13.88C133.895 13.5333 133.748 13.36 133.548 13.36C133.348 13.36 133.202 13.5333 133.108 13.88L131.428 19.64H135.668ZM143.085 13.2H138.865V11H150.125V13.2H145.905V25H143.085V13.2ZM158.163 21.74H152.683L151.743 25H148.923L152.343 13.84C152.583 13.04 152.837 12.42 153.103 11.98C153.37 11.54 153.683 11.2267 154.043 11.04C154.417 10.8533 154.877 10.76 155.423 10.76C155.97 10.76 156.423 10.8533 156.783 11.04C157.143 11.2267 157.457 11.54 157.723 11.98C158.003 12.42 158.263 13.04 158.503 13.84L161.923 25H159.103L158.163 21.74ZM157.543 19.64L155.863 13.88C155.77 13.5333 155.623 13.36 155.423 13.36C155.223 13.36 155.077 13.5333 154.983 13.88L153.303 19.64H157.543Z" fill="#0C151F"/>
</svg>
