<svg width="106" height="106" viewBox="0 0 106 106" fill="none" xmlns="http://www.w3.org/2000/svg">
<g filter="url(#filter0_d_939_6066)">
<path d="M81.5 63.75C75.325 63.75 70.1 67.55 68.2 73.25H48.25C48.25 69.925 47.3 67.075 45.875 64.7L79.6 30.025C81.025 30.025 82.45 30.5 83.875 30.5C90.525 30.5 95.75 25.275 95.75 18.625C95.75 11.975 90.525 6.75 83.875 6.75C77.225 6.75 72 11.975 72 18.625C72 20.05 72.475 21.95 72.95 23.375L39.7 57.575C36.85 55.2 33.05 54.25 29.25 54.25V34.3C34.95 32.4 38.75 27.175 38.75 21C38.75 12.925 32.575 6.75 24.5 6.75C16.425 6.75 10.25 12.925 10.25 21C10.25 27.175 14.05 32.4 19.75 34.3V56.625C14.05 59.95 10.25 66.125 10.25 72.775C10.25 83.225 18.8 91.775 29.25 91.775C36.375 91.775 42.55 87.975 45.4 82.275H67.725C69.625 87.5 74.85 91.775 81.025 91.775C88.625 91.775 95.275 85.6 95.275 77.525C95.75 69.925 89.1 63.75 81.5 63.75Z" fill="white"/>
<circle cx="29" cy="74" r="10" fill="#FF4A18"/>
</g>
<defs>
<filter id="filter0_d_939_6066" x="-4.5" y="-4" width="115" height="115" filterUnits="userSpaceOnUse" color-interpolation-filters="sRGB">
<feFlood flood-opacity="0" result="BackgroundImageFix"/>
<feColorMatrix in="SourceAlpha" type="matrix" values="0 0 0 0 0 0 0 0 0 0 0 0 0 0 0 0 0 0 127 0" result="hardAlpha"/>
<feOffset dy="4"/>
<feGaussianBlur stdDeviation="5"/>
<feComposite in2="hardAlpha" operator="out"/>
<feColorMatrix type="matrix" values="0 0 0 0 0 0 0 0 0 0 0 0 0 0 0 0 0 0 0.3 0"/>
<feBlend mode="normal" in2="BackgroundImageFix" result="effect1_dropShadow_939_6066"/>
<feBlend mode="normal" in="SourceGraphic" in2="effect1_dropShadow_939_6066" result="shape"/>
</filter>
</defs>
</svg>
