<svg width="95" height="95" viewBox="0 0 95 95" fill="none" xmlns="http://www.w3.org/2000/svg">
<path fill-rule="evenodd" clip-rule="evenodd" d="M70.2841 64.4844C69.3201 67.2132 65.488 69.4707 62.432 70.1309C60.34 70.575 57.612 70.9263 48.42 67.1172C38.096 62.8399 23.76 47.6039 23.76 37.4648C23.76 32.3033 26.736 26.293 31.94 26.293C34.444 26.293 34.996 26.3418 35.82 28.3184C36.784 30.6471 39.136 36.3845 39.416 36.9727C40.572 39.3854 38.24 40.7978 36.548 42.8984C36.008 43.5306 35.396 44.2143 36.08 45.3906C36.76 46.543 39.112 50.3762 42.568 53.4531C47.032 57.4303 50.652 58.7001 51.948 59.2402C52.912 59.6404 54.064 59.5472 54.768 58.7949C55.66 57.8306 56.768 56.2308 57.896 54.6543C58.692 53.5259 59.704 53.385 60.764 53.7852C61.48 54.0332 70.58 58.2593 70.964 58.9355C71.248 59.4277 71.2481 61.7555 70.2841 64.4844ZM47.008 8H46.988C24.936 8 7 25.9414 7 48C7 56.7466 9.82003 64.8614 14.616 71.4434L9.63202 86.3066L25.004 81.3945C31.328 85.5798 38.876 88 47.008 88C69.06 88 87 70.0586 87 48C87 25.9414 69.06 8 47.008 8Z" fill="white"/>
<circle cx="76" cy="19" r="11" fill="#FF4A18"/>
</svg>
